<svg width="39" height="39" viewBox="0 0 39 39" fill="none" xmlns="http://www.w3.org/2000/svg">
<path d="M26.6768 6.08551V3.6112C26.6768 2.9609 26.1376 2.42163 25.4873 2.42163C24.837 2.42163 24.2977 2.9609 24.2977 3.6112V5.99034H13.9881V3.6112C13.9881 2.9609 13.4488 2.42163 12.7985 2.42163C12.1482 2.42163 11.6089 2.9609 11.6089 3.6112V6.08551C7.32648 6.48203 5.2487 9.03565 4.93148 12.8264C4.89976 13.2864 5.28042 13.667 5.72452 13.667H32.5613C33.0212 13.667 33.4019 13.2705 33.3543 12.8264C33.0371 9.03565 30.9593 6.48203 26.6768 6.08551Z" fill="#32270E"/>
<path d="M31.8317 16.0461H6.45414C5.58178 16.0461 4.86804 16.7599 4.86804 17.6322V27.4026C4.86804 32.1609 7.24718 35.3331 12.7985 35.3331H25.4873C31.0386 35.3331 33.4178 32.1609 33.4178 27.4026V17.6322C33.4178 16.7599 32.704 16.0461 31.8317 16.0461ZM14.7177 29.3218C14.6384 29.3852 14.5591 29.4645 14.4798 29.5121C14.3846 29.5755 14.2894 29.6231 14.1943 29.6548C14.0991 29.7024 14.0039 29.7341 13.9088 29.75C13.7978 29.7659 13.7026 29.7817 13.5916 29.7817C13.3854 29.7817 13.1792 29.7341 12.9888 29.6548C12.7827 29.5755 12.624 29.4645 12.4654 29.3218C12.1799 29.0204 12.0055 28.608 12.0055 28.1956C12.0055 27.7832 12.1799 27.3709 12.4654 27.0695C12.624 26.9268 12.7827 26.8157 12.9888 26.7364C13.2743 26.6095 13.5916 26.5778 13.9088 26.6413C14.0039 26.6571 14.0991 26.6888 14.1943 26.7364C14.2894 26.7681 14.3846 26.8157 14.4798 26.8792C14.5591 26.9426 14.6384 27.0061 14.7177 27.0695C15.0032 27.3709 15.1777 27.7832 15.1777 28.1956C15.1777 28.608 15.0032 29.0204 14.7177 29.3218ZM14.7177 23.7704C14.4163 24.0559 14.0039 24.2304 13.5916 24.2304C13.1792 24.2304 12.7668 24.0559 12.4654 23.7704C12.1799 23.4691 12.0055 23.0567 12.0055 22.6443C12.0055 22.2319 12.1799 21.8195 12.4654 21.5182C12.9095 21.0741 13.6074 20.9313 14.1943 21.1851C14.4005 21.2644 14.5749 21.3754 14.7177 21.5182C15.0032 21.8195 15.1777 22.2319 15.1777 22.6443C15.1777 23.0567 15.0032 23.4691 14.7177 23.7704ZM20.269 29.3218C19.9677 29.6073 19.5553 29.7817 19.1429 29.7817C18.7305 29.7817 18.3181 29.6073 18.0168 29.3218C17.7313 29.0204 17.5568 28.608 17.5568 28.1956C17.5568 27.7832 17.7313 27.3709 18.0168 27.0695C18.6036 26.4826 19.6822 26.4826 20.269 27.0695C20.5545 27.3709 20.729 27.7832 20.729 28.1956C20.729 28.608 20.5545 29.0204 20.269 29.3218ZM20.269 23.7704C20.1897 23.8339 20.1104 23.8973 20.0311 23.9608C19.9359 24.0242 19.8408 24.0718 19.7456 24.1035C19.6504 24.1511 19.5553 24.1828 19.4601 24.1987C19.3491 24.2145 19.2539 24.2304 19.1429 24.2304C18.7305 24.2304 18.3181 24.0559 18.0168 23.7704C17.7313 23.4691 17.5568 23.0567 17.5568 22.6443C17.5568 22.2319 17.7313 21.8195 18.0168 21.5182C18.1595 21.3754 18.334 21.2644 18.5402 21.1851C19.127 20.9313 19.8249 21.0741 20.269 21.5182C20.5545 21.8195 20.729 22.2319 20.729 22.6443C20.729 23.0567 20.5545 23.4691 20.269 23.7704ZM25.8204 29.3218C25.519 29.6073 25.1066 29.7817 24.6942 29.7817C24.2818 29.7817 23.8695 29.6073 23.5681 29.3218C23.2826 29.0204 23.1081 28.608 23.1081 28.1956C23.1081 27.7832 23.2826 27.3709 23.5681 27.0695C24.155 26.4826 25.2335 26.4826 25.8204 27.0695C26.1059 27.3709 26.2803 27.7832 26.2803 28.1956C26.2803 28.608 26.1059 29.0204 25.8204 29.3218ZM25.8204 23.7704C25.7411 23.8339 25.6617 23.8973 25.5824 23.9608C25.4873 24.0242 25.3921 24.0718 25.2969 24.1035C25.2018 24.1511 25.1066 24.1828 25.0114 24.1987C24.9004 24.2145 24.7894 24.2304 24.6942 24.2304C24.2818 24.2304 23.8695 24.0559 23.5681 23.7704C23.2826 23.4691 23.1081 23.0567 23.1081 22.6443C23.1081 22.2319 23.2826 21.8195 23.5681 21.5182C23.7267 21.3754 23.8853 21.2644 24.0915 21.1851C24.377 21.0582 24.6942 21.0265 25.0114 21.0899C25.1066 21.1058 25.2018 21.1375 25.2969 21.1851C25.3921 21.2168 25.4873 21.2644 25.5824 21.3278C25.6617 21.3913 25.7411 21.4547 25.8204 21.5182C26.1059 21.8195 26.2803 22.2319 26.2803 22.6443C26.2803 23.0567 26.1059 23.4691 25.8204 23.7704Z" fill="#32270E"/>
</svg>
