<svg width="63" height="63" viewBox="0 0 63 63" fill="none" xmlns="http://www.w3.org/2000/svg">
<path d="M43.7654 9.96014V5.92308C43.7654 4.86205 42.8855 3.98218 41.8245 3.98218C40.7634 3.98218 39.8836 4.86205 39.8836 5.92308V9.80487H23.0624V5.92308C23.0624 4.86205 22.1826 3.98218 21.1215 3.98218C20.0605 3.98218 19.1806 4.86205 19.1806 5.92308V9.96014C12.1934 10.6071 8.80331 14.7736 8.28573 20.9586C8.23398 21.7091 8.85506 22.3301 9.57967 22.3301H53.3663C54.1168 22.3301 54.7379 21.6832 54.6603 20.9586C54.1427 14.7736 50.7526 10.6071 43.7654 9.96014Z" fill="#32270E"/>
<path d="M52.1758 26.2119H10.77C9.34667 26.2119 8.18213 27.3765 8.18213 28.7998V44.741C8.18213 52.5046 12.0639 57.6803 21.1215 57.6803H41.8244C50.8819 57.6803 54.7637 52.5046 54.7637 44.741V28.7998C54.7637 27.3765 53.5992 26.2119 52.1758 26.2119ZM24.2528 47.8723C24.1234 47.9759 23.994 48.1052 23.8646 48.1829C23.7093 48.2864 23.554 48.364 23.3988 48.4158C23.2435 48.4934 23.0882 48.5452 22.933 48.5711C22.7518 48.5969 22.5965 48.6228 22.4154 48.6228C22.079 48.6228 21.7425 48.5452 21.432 48.4158C21.0956 48.2864 20.8368 48.1052 20.578 47.8723C20.1122 47.3806 19.8275 46.7078 19.8275 46.035C19.8275 45.3621 20.1122 44.6893 20.578 44.1976C20.8368 43.9647 21.0956 43.7835 21.432 43.6541C21.8978 43.4471 22.4154 43.3953 22.933 43.4988C23.0882 43.5247 23.2435 43.5765 23.3988 43.6541C23.554 43.7059 23.7093 43.7835 23.8646 43.887C23.994 43.9905 24.1234 44.0941 24.2528 44.1976C24.7186 44.6893 25.0032 45.3621 25.0032 46.035C25.0032 46.7078 24.7186 47.3806 24.2528 47.8723ZM24.2528 38.8148C23.7611 39.2806 23.0882 39.5653 22.4154 39.5653C21.7425 39.5653 21.0697 39.2806 20.578 38.8148C20.1122 38.3231 19.8275 37.6503 19.8275 36.9774C19.8275 36.3046 20.1122 35.6317 20.578 35.14C21.3026 34.4154 22.4413 34.1825 23.3988 34.5966C23.7352 34.726 24.0199 34.9071 24.2528 35.14C24.7186 35.6317 25.0032 36.3046 25.0032 36.9774C25.0032 37.6503 24.7186 38.3231 24.2528 38.8148ZM33.3103 47.8723C32.8186 48.3382 32.1458 48.6228 31.4729 48.6228C30.8001 48.6228 30.1272 48.3382 29.6355 47.8723C29.1697 47.3806 28.885 46.7078 28.885 46.035C28.885 45.3621 29.1697 44.6893 29.6355 44.1976C30.593 43.2401 32.3528 43.2401 33.3103 44.1976C33.7761 44.6893 34.0608 45.3621 34.0608 46.035C34.0608 46.7078 33.7761 47.3806 33.3103 47.8723ZM33.3103 38.8148C33.1809 38.9183 33.0515 39.0218 32.9221 39.1254C32.7668 39.2289 32.6116 39.3065 32.4563 39.3583C32.301 39.4359 32.1458 39.4877 31.9905 39.5135C31.8093 39.5394 31.6541 39.5653 31.4729 39.5653C30.8001 39.5653 30.1272 39.2806 29.6355 38.8148C29.1697 38.3231 28.885 37.6503 28.885 36.9774C28.885 36.3046 29.1697 35.6317 29.6355 35.14C29.8684 34.9071 30.1531 34.726 30.4895 34.5966C31.447 34.1825 32.5857 34.4154 33.3103 35.14C33.7761 35.6317 34.0608 36.3046 34.0608 36.9774C34.0608 37.6503 33.7761 38.3231 33.3103 38.8148ZM42.3678 47.8723C41.8761 48.3382 41.2033 48.6228 40.5304 48.6228C39.8576 48.6228 39.1847 48.3382 38.6931 47.8723C38.2272 47.3806 37.9426 46.7078 37.9426 46.035C37.9426 45.3621 38.2272 44.6893 38.6931 44.1976C39.6506 43.2401 41.4103 43.2401 42.3678 44.1976C42.8336 44.6893 43.1183 45.3621 43.1183 46.035C43.1183 46.7078 42.8336 47.3806 42.3678 47.8723ZM42.3678 38.8148C42.2384 38.9183 42.109 39.0218 41.9796 39.1254C41.8244 39.2289 41.6691 39.3065 41.5138 39.3583C41.3586 39.4359 41.2033 39.4877 41.048 39.5135C40.8669 39.5394 40.6857 39.5653 40.5304 39.5653C39.8576 39.5653 39.1847 39.2806 38.6931 38.8148C38.2272 38.3231 37.9426 37.6503 37.9426 36.9774C37.9426 36.3046 38.2272 35.6317 38.6931 35.14C38.9518 34.9071 39.2106 34.726 39.547 34.5966C40.0129 34.3896 40.5304 34.3378 41.048 34.4413C41.2033 34.4672 41.3586 34.519 41.5138 34.5966C41.6691 34.6484 41.8244 34.726 41.9796 34.8295C42.109 34.933 42.2384 35.0365 42.3678 35.14C42.8336 35.6317 43.1183 36.3046 43.1183 36.9774C43.1183 37.6503 42.8336 38.3231 42.3678 38.8148Z" fill="#32270E"/>
</svg>
