<svg width="63" height="63" viewBox="0 0 63 63" fill="none" xmlns="http://www.w3.org/2000/svg">
<path d="M31.4734 6.03174C17.214 6.03174 5.59424 17.6515 5.59424 31.9109C5.59424 46.1703 17.214 57.7901 31.4734 57.7901C45.7328 57.7901 57.3526 46.1703 57.3526 31.9109C57.3526 17.6515 45.7328 6.03174 31.4734 6.03174ZM42.7308 41.1498C42.3685 41.7709 41.7216 42.1073 41.0487 42.1073C40.7123 42.1073 40.3758 42.0297 40.0653 41.8226L32.0427 37.035C30.0501 35.8445 28.5749 33.2307 28.5749 30.9275V20.317C28.5749 19.256 29.4548 18.3761 30.5159 18.3761C31.5769 18.3761 32.4568 19.256 32.4568 20.317V30.9275C32.4568 31.8591 33.2332 33.2307 34.0354 33.6966L42.058 38.4842C42.9896 39.0277 43.3002 40.2181 42.7308 41.1498Z" fill="#32270E"/>
</svg>
