<svg width="39" height="39" viewBox="0 0 39 39" fill="none" xmlns="http://www.w3.org/2000/svg">
<path d="M19.1433 3.22571C10.4037 3.22571 3.28198 10.3474 3.28198 19.087C3.28198 27.8265 10.4037 34.9482 19.1433 34.9482C27.8828 34.9482 35.0045 27.8265 35.0045 19.087C35.0045 10.3474 27.8828 3.22571 19.1433 3.22571ZM26.0429 24.7495C25.8208 25.1301 25.4243 25.3363 25.0119 25.3363C24.8057 25.3363 24.5995 25.2887 24.4092 25.1618L19.4922 22.2275C18.2709 21.4979 17.3668 19.8959 17.3668 18.4842V11.9811C17.3668 11.3308 17.9061 10.7915 18.5564 10.7915C19.2067 10.7915 19.746 11.3308 19.746 11.9811V18.4842C19.746 19.0553 20.2218 19.8959 20.7135 20.1814L25.6305 23.1157C26.2015 23.4488 26.3919 24.1784 26.0429 24.7495Z" fill="#32270E"/>
</svg>
