<svg width="16" height="17" viewBox="0 0 16 17" fill="none" xmlns="http://www.w3.org/2000/svg">
<g clip-path="url(#clip0_182_2790)">
<path d="M6.72016 7.66399C6.7535 7.44399 6.82683 7.25066 6.92016 7.08399C7.0135 6.91732 7.14683 6.77732 7.3135 6.67066C7.4735 6.57066 7.6735 6.52399 7.92016 6.51732C8.0735 6.52399 8.2135 6.55066 8.34016 6.60399C8.4735 6.66399 8.5935 6.74399 8.68683 6.84399C8.78016 6.94399 8.8535 7.06399 8.9135 7.19732C8.9735 7.33066 9.00016 7.47732 9.00683 7.62399H10.2002C10.1868 7.31066 10.1268 7.02399 10.0135 6.76399C9.90016 6.50399 9.74683 6.27732 9.54683 6.09066C9.34683 5.90399 9.10683 5.75732 8.82683 5.65066C8.54683 5.54399 8.24016 5.49732 7.90016 5.49732C7.46683 5.49732 7.08683 5.57066 6.76683 5.72399C6.44683 5.87732 6.18016 6.07732 5.96683 6.33732C5.7535 6.59732 5.5935 6.89732 5.4935 7.24399C5.3935 7.59066 5.3335 7.95066 5.3335 8.33732V8.51732C5.3335 8.90399 5.38683 9.26399 5.48683 9.61066C5.58683 9.95732 5.74683 10.2573 5.96016 10.5107C6.1735 10.764 6.44016 10.9707 6.76016 11.1173C7.08016 11.264 7.46016 11.344 7.8935 11.344C8.20683 11.344 8.50016 11.2907 8.7735 11.1907C9.04683 11.0907 9.28683 10.9507 9.49349 10.7707C9.70016 10.5907 9.86683 10.384 9.98683 10.144C10.1068 9.90399 10.1802 9.65066 10.1868 9.37732H8.9935C8.98683 9.51732 8.9535 9.64399 8.8935 9.76399C8.8335 9.88399 8.7535 9.98399 8.6535 10.0707C8.5535 10.1573 8.44016 10.224 8.30683 10.2707C8.18016 10.3173 8.04683 10.3307 7.90683 10.3373C7.66683 10.3307 7.46683 10.284 7.3135 10.184C7.14683 10.0773 7.0135 9.93732 6.92016 9.77066C6.82683 9.60399 6.7535 9.40399 6.72016 9.18399C6.68683 8.96399 6.66683 8.73732 6.66683 8.51732V8.33732C6.66683 8.10399 6.68683 7.88399 6.72016 7.66399ZM8.00016 1.75732C4.32016 1.75732 1.3335 4.74399 1.3335 8.42399C1.3335 12.104 4.32016 15.0907 8.00016 15.0907C11.6802 15.0907 14.6668 12.104 14.6668 8.42399C14.6668 4.74399 11.6802 1.75732 8.00016 1.75732ZM8.00016 13.7573C5.06016 13.7573 2.66683 11.364 2.66683 8.42399C2.66683 5.48399 5.06016 3.09066 8.00016 3.09066C10.9402 3.09066 13.3335 5.48399 13.3335 8.42399C13.3335 11.364 10.9402 13.7573 8.00016 13.7573Z" fill="#3B323A"/>
</g>
<defs>
<clipPath id="clip0_182_2790">
<rect width="16" height="16" fill="white" transform="translate(0 0.423828)"/>
</clipPath>
</defs>
</svg>
