<svg width="152" height="56" viewBox="0 0 152 56" fill="none" xmlns="http://www.w3.org/2000/svg">
<path d="M0 43.4429V0.882812H22.6734V6.22394H5.46779V17.8351H18.6834V23.1973H5.4889V43.464L0 43.4429Z" fill="#32270E"/>
<path d="M35.0489 8.48723C34.3759 9.16027 33.463 9.53839 32.5112 9.53839C31.5594 9.53839 30.6465 9.16027 29.9735 8.48723C29.3004 7.81418 28.9223 6.90133 28.9223 5.94949C28.9223 4.99766 29.3004 4.08481 29.9735 3.41176C30.6465 2.73871 31.5594 2.36059 32.5112 2.36059C33.463 2.36059 34.3759 2.73871 35.0489 3.41176C35.722 4.08481 36.1001 4.99766 36.1001 5.94949C36.1001 6.90133 35.722 7.81418 35.0489 8.48723Z" fill="#32270E"/>
<path d="M29.7456 43.464V14.8795H35.2345V43.464H29.7456Z" fill="#32270E"/>
<path fill-rule="evenodd" clip-rule="evenodd" d="M43.1934 27.504C43.1934 20.1995 48.2601 14.0562 55.5223 14.0562V14.0773C58.8579 14.0773 61.6024 15.3439 63.6079 17.455V14.9006H69.0968V41.3529C69.1026 43.8798 68.4262 46.3614 67.1391 48.5359C65.852 50.7104 64.0019 52.4972 61.7839 53.7078C59.5659 54.9184 57.0622 55.5079 54.5371 55.4142C52.0119 55.3204 49.5589 54.5469 47.4368 53.1751L50.1812 48.4251C51.5534 49.3962 53.2846 50.0718 55.0368 50.0718C56.1723 50.0691 57.296 49.8413 58.343 49.4017C59.3899 48.9621 60.3393 48.3193 61.1364 47.5105C61.9334 46.7017 62.5622 45.7429 62.9864 44.6896C63.4106 43.6364 63.6219 42.5094 63.6079 41.374V37.574C61.6024 39.6851 58.8579 40.9518 55.5223 40.9518C48.2601 40.9518 43.1934 34.8084 43.1934 27.504ZM56.1346 19.3973C52.1234 19.3973 48.6612 22.9651 48.6612 27.504C48.6612 32.0429 52.1234 35.5895 56.1346 35.5895C60.1246 35.5895 63.5868 32.0429 63.5868 27.504C63.5868 22.9862 60.1457 19.3973 56.1346 19.3973Z" fill="#32270E"/>
<path d="M88.8146 19.3974C87.2448 19.4251 85.749 20.0697 84.6507 21.1917C83.5524 22.3136 82.9399 23.8229 82.9457 25.3929V43.4641H77.4568V14.8796H82.9457V17.4974C83.7669 16.409 84.8337 15.53 86.059 14.932C87.2843 14.334 88.6336 14.0339 89.9968 14.0562C93.8391 14.0562 96.7946 15.9562 98.4835 18.8696C99.4257 17.4091 100.715 16.205 102.237 15.365C103.758 14.525 105.465 14.0753 107.202 14.0562C113.43 14.0562 117.336 19.0807 117.336 25.3085V43.4641H111.889V25.3718C111.895 23.8018 111.282 22.2925 110.184 21.1705C109.086 20.0485 107.59 19.404 106.02 19.3763C104.45 19.404 102.955 20.0485 101.856 21.1705C100.758 22.2925 100.146 23.8018 100.151 25.3718V43.443H94.6624V25.3718C94.6683 23.8054 94.0587 22.2992 92.965 21.1778C91.8712 20.0564 90.3808 19.4095 88.8146 19.3763V19.3974Z" fill="#32270E"/>
<path fill-rule="evenodd" clip-rule="evenodd" d="M142.128 15.0987C143.778 15.7953 145.269 16.8193 146.511 18.1087V14.8795H152V43.4641H146.532V40.2129C145.284 41.5097 143.785 42.5394 142.126 43.2397C140.468 43.9401 138.685 44.2965 136.884 44.2874C128.736 44.2874 122.951 37.4052 122.951 29.1718C122.951 20.9384 128.736 14.0562 136.884 14.0562C138.685 14.0434 140.47 14.3981 142.128 15.0987ZM146.511 18.1087C146.518 18.116 146.525 18.1233 146.532 18.1307H146.511V18.1087ZM137.476 19.3973C132.599 19.3973 128.419 23.7251 128.419 29.1718C128.419 34.6185 132.62 38.9252 137.476 38.9252C142.352 38.9252 146.532 34.6185 146.532 29.1718C146.532 23.7251 142.331 19.3973 137.476 19.3973Z" fill="#32270E"/>
</svg>
