<svg width="79" height="29" viewBox="0 0 79 29" fill="none" xmlns="http://www.w3.org/2000/svg">
<g clip-path="url(#clip0_210_312)">
<path d="M0.888184 22.1889V0.584473H12.3977V3.29574H3.66375V9.18981H10.3723V11.9118H3.67447V22.1996L0.888184 22.1889Z" fill="#32270E"/>
<path d="M18.6798 4.44448C18.3381 4.78613 17.8747 4.97807 17.3916 4.97807C16.9084 4.97807 16.445 4.78613 16.1034 4.44448C15.7617 4.10283 15.5698 3.63944 15.5698 3.15627C15.5698 2.6731 15.7617 2.20971 16.1034 1.86806C16.445 1.52641 16.9084 1.33447 17.3916 1.33447C17.8747 1.33447 18.3381 1.52641 18.6798 1.86806C19.0214 2.20971 19.2134 2.6731 19.2134 3.15627C19.2134 3.63944 19.0214 4.10283 18.6798 4.44448Z" fill="#32270E"/>
<path d="M15.9878 22.1996V7.68945H18.7741V22.1996H15.9878Z" fill="#32270E"/>
<path fill-rule="evenodd" clip-rule="evenodd" d="M22.814 14.0979C22.814 10.3899 25.386 7.27148 29.0724 7.27148V7.2822C30.7656 7.2822 32.1588 7.92519 33.1769 8.99683V7.70014H35.9631V21.1279C35.9661 22.4106 35.6227 23.6703 34.9694 24.7741C34.316 25.8779 33.3768 26.785 32.2509 27.3995C31.125 28.014 29.8541 28.3133 28.5723 28.2657C27.2905 28.2181 26.0453 27.8254 24.968 27.1291L26.3612 24.7179C27.0577 25.2109 27.9365 25.5538 28.826 25.5538C29.4024 25.5524 29.9728 25.4368 30.5043 25.2136C31.0357 24.9905 31.5177 24.6642 31.9222 24.2536C32.3268 23.843 32.646 23.3564 32.8614 22.8217C33.0767 22.287 33.1839 21.715 33.1769 21.1386V19.2096C32.1588 20.2813 30.7656 20.9243 29.0724 20.9243C25.386 20.9243 22.814 17.8058 22.814 14.0979ZM29.3832 9.98275C27.3471 9.98275 25.5896 11.7938 25.5896 14.0979C25.5896 16.4019 27.3471 18.2023 29.3832 18.2023C31.4086 18.2023 33.1661 16.4019 33.1661 14.0979C33.1661 11.8045 31.4194 9.98275 29.3832 9.98275Z" fill="#32270E"/>
<path d="M45.9724 9.98286C45.1756 9.99693 44.4163 10.3241 43.8587 10.8937C43.3012 11.4632 42.9903 12.2294 42.9933 13.0263V22.1997H40.207V7.68953H42.9933V9.01837C43.4101 8.46588 43.9516 8.01967 44.5736 7.71611C45.1956 7.41256 45.8805 7.26025 46.5726 7.27158C48.523 7.27158 50.0233 8.23606 50.8806 9.71493C51.3589 8.97356 52.0135 8.36233 52.7859 7.93593C53.5582 7.50953 54.4243 7.28127 55.3065 7.27158C58.4679 7.27158 60.4504 9.8221 60.4504 12.9835V22.1997H57.6856V13.0156C57.6885 12.2186 57.3776 11.4525 56.8201 10.883C56.2626 10.3134 55.5033 9.98622 54.7064 9.97214C53.9095 9.98622 53.1502 10.3134 52.5927 10.883C52.0352 11.4525 51.7242 12.2186 51.7272 13.0156V22.1889H48.9409V13.0156C48.9439 12.2205 48.6345 11.4559 48.0792 10.8867C47.524 10.3174 46.7674 9.98899 45.9724 9.97214V9.98286Z" fill="#32270E"/>
<path fill-rule="evenodd" clip-rule="evenodd" d="M73.0357 7.80084C73.873 8.15446 74.6299 8.67428 75.2604 9.32878V7.68959H78.0467V22.1997H75.2712V20.5494C74.6373 21.2077 73.8764 21.7304 73.0346 22.0859C72.1928 22.4414 71.2875 22.6223 70.3737 22.6177C66.2372 22.6177 63.3008 19.1241 63.3008 14.9447C63.3008 10.7653 66.2372 7.27165 70.3737 7.27165C71.2878 7.26514 72.1936 7.44521 73.0357 7.80084ZM75.2604 9.32878C75.264 9.33249 75.2676 9.33621 75.2712 9.33993H75.2604V9.32878ZM70.6738 9.98292C68.1983 9.98292 66.0764 12.1798 66.0764 14.9447C66.0764 17.7095 68.209 19.8957 70.6738 19.8957C73.1493 19.8957 75.2712 17.7095 75.2712 14.9447C75.2712 12.1798 73.1386 9.98292 70.6738 9.98292Z" fill="#32270E"/>
</g>
<defs>
<clipPath id="clip0_210_312">
<rect width="79" height="29" fill="white"/>
</clipPath>
</defs>
</svg>
