<svg width="24" height="25" viewBox="0 0 24 25" fill="none" xmlns="http://www.w3.org/2000/svg">
<path d="M17.34 5.88383C17.1027 5.88383 16.8707 5.95421 16.6733 6.08606C16.476 6.21792 16.3222 6.40534 16.2313 6.62461C16.1405 6.84388 16.1168 7.08516 16.1631 7.31794C16.2094 7.55071 16.3236 7.76453 16.4915 7.93236C16.6593 8.10018 16.8731 8.21447 17.1059 8.26077C17.3387 8.30707 17.5799 8.28331 17.7992 8.19248C18.0185 8.10166 18.2059 7.94785 18.3378 7.75051C18.4696 7.55317 18.54 7.32117 18.54 7.08383C18.54 6.76557 18.4136 6.46034 18.1885 6.2353C17.9635 6.01026 17.6583 5.88383 17.34 5.88383ZM21.94 8.30383C21.9206 7.47413 21.7652 6.65323 21.48 5.87383C21.2257 5.20696 20.83 4.60311 20.32 4.10383C19.8248 3.59125 19.2196 3.198 18.55 2.95383C17.7727 2.65999 16.9508 2.50104 16.12 2.48383C15.06 2.42383 14.72 2.42383 12 2.42383C9.28 2.42383 8.94 2.42383 7.88 2.48383C7.04915 2.50104 6.22734 2.65999 5.45 2.95383C4.78168 3.20048 4.17693 3.59339 3.68 4.10383C3.16743 4.59901 2.77418 5.20427 2.53 5.87383C2.23616 6.65117 2.07721 7.47298 2.06 8.30383C2 9.36383 2 9.70383 2 12.4238C2 15.1438 2 15.4838 2.06 16.5438C2.07721 17.3747 2.23616 18.1965 2.53 18.9738C2.77418 19.6434 3.16743 20.2486 3.68 20.7438C4.17693 21.2543 4.78168 21.6472 5.45 21.8938C6.22734 22.1877 7.04915 22.3466 7.88 22.3638C8.94 22.4238 9.28 22.4238 12 22.4238C14.72 22.4238 15.06 22.4238 16.12 22.3638C16.9508 22.3466 17.7727 22.1877 18.55 21.8938C19.2196 21.6497 19.8248 21.2564 20.32 20.7438C20.8322 20.2464 21.2283 19.642 21.48 18.9738C21.7652 18.1944 21.9206 17.3735 21.94 16.5438C21.94 15.4838 22 15.1438 22 12.4238C22 9.70383 22 9.36383 21.94 8.30383ZM20.14 16.4238C20.1327 17.0586 20.0178 17.6875 19.8 18.2838C19.6403 18.719 19.3839 19.1123 19.05 19.4338C18.7256 19.7643 18.3332 20.0203 17.9 20.1838C17.3037 20.4016 16.6748 20.5165 16.04 20.5238C15.04 20.5738 14.67 20.5838 12.04 20.5838C9.41 20.5838 9.04 20.5838 8.04 20.5238C7.38089 20.5362 6.72459 20.4347 6.1 20.2238C5.68578 20.0519 5.31136 19.7966 5 19.4738C4.66809 19.1526 4.41484 18.759 4.26 18.3238C4.01586 17.719 3.88044 17.0758 3.86 16.4238C3.86 15.4238 3.8 15.0538 3.8 12.4238C3.8 9.79383 3.8 9.42383 3.86 8.42383C3.86448 7.77488 3.98295 7.13177 4.21 6.52383C4.38605 6.10174 4.65627 5.72549 5 5.42383C5.30381 5.08 5.67929 4.80692 6.1 4.62383C6.70955 4.40387 7.352 4.28891 8 4.28383C9 4.28383 9.37 4.22383 12 4.22383C14.63 4.22383 15 4.22383 16 4.28383C16.6348 4.29111 17.2637 4.40607 17.86 4.62383C18.3144 4.79248 18.7223 5.06667 19.05 5.42383C19.3777 5.73101 19.6338 6.10656 19.8 6.52383C20.0223 7.13276 20.1373 7.77561 20.14 8.42383C20.19 9.42383 20.2 9.79383 20.2 12.4238C20.2 15.0538 20.19 15.4238 20.14 16.4238ZM12 7.29383C10.9858 7.2958 9.99496 7.59835 9.15265 8.16325C8.31035 8.72814 7.65438 9.53002 7.26763 10.4676C6.88089 11.4051 6.78072 12.4363 6.97979 13.4308C7.17886 14.4252 7.66824 15.3384 8.38608 16.0548C9.10392 16.7712 10.018 17.2588 11.0129 17.456C12.0077 17.6531 13.0387 17.5509 13.9755 17.1624C14.9123 16.7738 15.7129 16.1163 16.2761 15.2729C16.8394 14.4295 17.14 13.438 17.14 12.4238C17.1413 11.7489 17.0092 11.0804 16.7512 10.4568C16.4933 9.83313 16.1146 9.26664 15.6369 8.78988C15.1592 8.31312 14.5919 7.93551 13.9678 7.67876C13.3436 7.42201 12.6749 7.29119 12 7.29383ZM12 15.7538C11.3414 15.7538 10.6976 15.5585 10.15 15.1926C9.60234 14.8267 9.17552 14.3066 8.92348 13.6982C8.67144 13.0897 8.6055 12.4201 8.73398 11.7742C8.86247 11.1282 9.17963 10.5349 9.64533 10.0692C10.111 9.60345 10.7044 9.2863 11.3503 9.15781C11.9963 9.02932 12.6659 9.09527 13.2743 9.34731C13.8828 9.59935 14.4029 10.0262 14.7688 10.5738C15.1347 11.1214 15.33 11.7652 15.33 12.4238C15.33 12.8611 15.2439 13.2941 15.0765 13.6982C14.9092 14.1022 14.6639 14.4693 14.3547 14.7785C14.0454 15.0877 13.6784 15.333 13.2743 15.5003C12.8703 15.6677 12.4373 15.7538 12 15.7538Z" fill="#32270E"/>
</svg>
