<svg width="83" height="33" viewBox="0 0 83 33" fill="none" xmlns="http://www.w3.org/2000/svg">
<path d="M29.2218 3.28223V12.8158H30.5866L33.1236 19.8672L35.6814 12.8158H38.6178L34.4222 23.2837H31.7858L29.2218 16.8863V29.617H2.88806V3.28223H29.2218ZM48.3697 12.5758C51.5058 12.5758 52.585 14.5737 52.6647 16.1123H49.9279C49.8679 15.4532 49.3682 14.8531 48.3501 14.8531C47.4292 14.8531 46.9118 15.2929 46.9118 15.8723C46.9118 17.6302 52.705 15.8723 52.705 20.1673C52.705 22.0452 51.1065 23.5227 48.2704 23.5227C44.9935 23.5227 43.875 21.8455 43.7354 19.8869H46.6118C46.6521 20.5863 47.1716 21.2454 48.3501 21.2454C49.4282 21.2454 49.988 20.8657 49.988 20.2873C49.988 18.5293 44.1751 20.1869 44.1751 16.0316C44.1751 14.134 45.7934 12.5758 48.3697 12.5758ZM63.712 12.5758C67.0685 12.5758 69.2062 15.0725 69.2062 18.0493C69.2062 21.026 67.0675 23.5227 63.712 23.5227C60.3565 23.5227 58.2189 21.025 58.2189 18.0493C58.2189 15.0735 60.3565 12.5758 63.712 12.5758ZM76.1914 12.5758C78.7088 12.5758 80.0466 14.254 80.0466 16.7507V23.2848H77.2105V17.0715C77.2105 15.8537 76.6911 15.0145 75.4319 15.0145C74.0537 15.0145 73.2953 15.8919 73.2953 17.2908V23.2837H70.4582V12.8158H73.0749V14.0947C73.555 13.1966 74.6331 12.5758 76.1914 12.5758ZM42.3551 12.8158V23.2837H39.518V12.8158H42.3551ZM56.9762 12.8158V23.2837H54.1391V12.8158H56.9762ZM63.712 15.0735C62.2128 15.0735 61.056 16.1713 61.056 18.0493C61.056 19.9272 62.2148 21.026 63.712 21.026C65.2134 21.026 66.3691 19.9262 66.3691 18.0493C66.3691 16.1723 65.2113 15.0735 63.712 15.0735Z" fill="#FF0066"/>
<path d="M13.6033 10.0483C13.6097 10.8811 12.9416 11.5624 12.1088 11.572C11.7051 11.5753 11.3168 11.4177 11.0297 11.1339C10.7426 10.8501 10.5804 10.4636 10.5791 10.0599C10.5791 9.22707 11.2526 8.55106 12.0854 8.54786C12.9182 8.54468 13.5969 9.21551 13.6033 10.0483Z" fill="white"/>
<path d="M8.7887 20.8104C8.79191 20.4273 8.83735 20.0458 8.92419 19.6727L10.0764 14.9718H8.29327L8.83525 12.9725H13.1245L11.4313 19.6892C11.3363 20.0262 11.2832 20.3736 11.2731 20.7235C11.2731 21.1527 11.4841 21.2789 11.8151 21.3534C12.0116 21.3979 13.6209 21.3668 14.4939 19.4255L15.6068 14.9728H13.7999L14.3418 12.9735H18.207L17.7095 15.2428C18.3839 13.9789 19.7419 12.777 21.073 12.777C22.4962 12.777 23.6702 13.7906 23.6702 15.732C23.6679 16.2901 23.5839 16.8448 23.4209 17.3786L22.6969 19.9736C22.6317 20.2018 22.5939 20.4368 22.5841 20.6739C22.5841 21.1248 22.7683 21.3503 23.1013 21.3503C23.4343 21.3503 23.8687 21.1021 24.3652 19.7254L25.3581 20.1091C24.7717 22.1632 23.7105 23.0207 22.3783 23.0207C20.8207 23.0207 20.076 22.096 20.076 20.8311C20.0747 20.4493 20.128 20.0693 20.2342 19.7027L20.9789 17.0311C21.0575 16.7674 21.0955 16.4932 21.0917 16.2181C21.0917 15.3586 20.5724 14.8415 19.7378 14.8415C18.6766 14.8415 17.9764 15.6068 17.6175 17.0786L16.1694 22.8707H13.6416L14.0946 21.0493C13.352 22.2708 12.3198 23.0269 11.0466 23.0269C9.51271 23.0269 8.7887 22.1426 8.7887 20.8104Z" fill="white"/>
</svg>
