<svg width="160" height="65" viewBox="0 0 160 65" fill="none" xmlns="http://www.w3.org/2000/svg">
<path d="M55.8767 6.21387V24.9947H58.5653L63.5632 38.8858L68.6018 24.9947H74.3865L66.1212 45.6162H60.9276L55.8767 33.0134V58.0926H4V6.21387H55.8767ZM93.5975 24.5219C99.7756 24.5219 101.902 28.4578 102.058 31.4888H96.6672C96.5489 30.1904 95.5645 29.0082 93.5588 29.0082C91.7447 29.0082 90.7255 29.8744 90.7255 31.0159C90.7255 34.479 102.138 31.0159 102.138 39.4769C102.138 43.1764 98.9888 46.0871 93.4018 46.0871C86.9465 46.0871 84.7431 42.783 84.4679 38.9245H90.1344C90.2139 40.3024 91.2371 41.6008 93.5588 41.6008C95.6827 41.6008 96.7854 40.8527 96.7854 39.7133C96.7854 36.2502 85.3342 39.5156 85.3342 31.3298C85.3342 27.5915 88.5221 24.5219 93.5975 24.5219ZM123.821 24.5219C130.434 24.5219 134.645 29.4403 134.645 35.3045C134.645 41.1686 130.432 46.0871 123.821 46.0871C117.211 46.0871 113 41.1666 113 35.3045C113 29.4423 117.211 24.5219 123.821 24.5219ZM148.405 24.5219C153.364 24.5219 156 27.828 156 32.7464V45.6183H150.413V33.3783C150.413 30.9792 149.39 29.3261 146.909 29.3261C144.194 29.3261 142.7 31.0546 142.7 33.8104V45.6162H137.111V24.9947H142.266V27.5141C143.212 25.7448 145.336 24.5219 148.405 24.5219ZM81.7489 24.9947V45.6162H76.1598V24.9947H81.7489ZM110.552 24.9947V45.6162H104.963V24.9947H110.552ZM123.821 29.4423C120.868 29.4423 118.589 31.605 118.589 35.3045C118.589 39.004 120.872 41.1686 123.821 41.1686C126.779 41.1686 129.056 39.0019 129.056 35.3045C129.056 31.607 126.775 29.4423 123.821 29.4423Z" fill="#FF0066"/>
<path d="M25.1086 19.5428C25.1212 21.1834 23.805 22.5254 22.1644 22.5445C21.3692 22.551 20.6042 22.2403 20.0386 21.6813C19.4731 21.1222 19.1536 20.3608 19.1509 19.5656C19.151 17.925 20.4777 16.5932 22.1184 16.5869C23.759 16.5807 25.0959 17.9022 25.1086 19.5428Z" fill="white"/>
<path d="M15.6239 40.7437C15.6302 39.9891 15.7198 39.2375 15.8908 38.5025L18.1607 29.2419H14.6479L15.7156 25.3033H24.1653L20.8298 38.5351C20.6427 39.1989 20.538 39.8832 20.5181 40.5726C20.5181 41.4182 20.9337 41.6667 21.5858 41.8135C21.9729 41.9011 25.1433 41.8399 26.863 38.0155L29.0553 29.2439H25.4958L26.5634 25.3054H34.1777L33.1977 29.7757C34.5261 27.2858 37.2014 24.9182 39.8237 24.9182C42.6274 24.9182 44.94 26.915 44.94 30.7395C44.9355 31.8389 44.7701 32.9317 44.4489 33.9832L43.0226 39.0954C42.8943 39.5448 42.8198 40.0078 42.8005 40.4748C42.8005 41.3632 43.1632 41.8073 43.8193 41.8073C44.4754 41.8073 45.3312 41.3183 46.3092 38.6064L48.2652 39.3623C47.1099 43.4088 45.0194 45.098 42.3951 45.098C39.3266 45.098 37.8595 43.2764 37.8595 40.7845C37.857 40.0324 37.962 39.2839 38.1713 38.5615L39.6383 33.2986C39.7931 32.7791 39.868 32.2391 39.8604 31.6971C39.8604 30.0039 38.8375 28.9851 37.1933 28.9851C35.1027 28.9851 33.7233 30.4929 33.0163 33.3923L30.1638 44.8025H25.184L26.0765 41.2144C24.6135 43.6207 22.5801 45.1102 20.0719 45.1102C17.0502 45.1102 15.6239 43.3681 15.6239 40.7437Z" fill="white"/>
</svg>
