<svg width="17" height="17" viewBox="0 0 17 17" fill="none" xmlns="http://www.w3.org/2000/svg">
<path d="M13.9061 5.88653C13.2061 2.80653 10.5194 1.41986 8.15943 1.41986C8.15943 1.41986 8.15943 1.41986 8.15276 1.41986C5.79943 1.41986 3.10609 2.79986 2.40609 5.87986C1.62609 9.31986 3.73276 12.2332 5.63943 14.0665C6.34609 14.7465 7.25276 15.0865 8.15943 15.0865C9.06609 15.0865 9.97276 14.7465 10.6728 14.0665C12.5794 12.2332 14.6861 9.32653 13.9061 5.88653ZM8.15943 9.22653C6.99943 9.22653 6.05943 8.28653 6.05943 7.12653C6.05943 5.96653 6.99943 5.02653 8.15943 5.02653C9.31943 5.02653 10.2594 5.96653 10.2594 7.12653C10.2594 8.28653 9.31943 9.22653 8.15943 9.22653Z" fill="#32270E"/>
</svg>
