<svg width="40" height="40" viewBox="0 0 40 40" fill="none" xmlns="http://www.w3.org/2000/svg">
<path d="M34.0037 14.5804C32.2952 7.06285 25.7377 3.67834 19.9775 3.67834C19.9775 3.67834 19.9775 3.67834 19.9612 3.67834C14.2174 3.67834 7.6436 7.04658 5.93508 14.5641C4.03129 22.9603 9.17314 30.071 13.8268 34.5457C15.5516 36.2054 17.7646 37.0352 19.9775 37.0352C22.1905 37.0352 24.4034 36.2054 26.1119 34.5457C30.7656 30.071 35.9075 22.9765 34.0037 14.5804ZM19.9775 22.7325C17.1462 22.7325 14.8519 20.4382 14.8519 17.6069C14.8519 14.7756 17.1462 12.4813 19.9775 12.4813C22.8088 12.4813 25.1031 14.7756 25.1031 17.6069C25.1031 20.4382 22.8088 22.7325 19.9775 22.7325Z" fill="#32270E"/>
</svg>
