<svg width="13" height="13" viewBox="0 0 13 13" fill="none" xmlns="http://www.w3.org/2000/svg">
<path d="M6.15942 1.57825C3.40442 1.57825 1.15942 3.82325 1.15942 6.57825C1.15942 9.33325 3.40442 11.5782 6.15942 11.5782C8.91442 11.5782 11.1594 9.33325 11.1594 6.57825C11.1594 3.82325 8.91442 1.57825 6.15942 1.57825ZM8.33442 8.36325C8.26442 8.48325 8.13942 8.54825 8.00942 8.54825C7.94442 8.54825 7.87942 8.53325 7.81942 8.49325L6.26942 7.56825C5.88442 7.33825 5.59942 6.83325 5.59942 6.38825V4.33825C5.59942 4.13325 5.76942 3.96325 5.97442 3.96325C6.17942 3.96325 6.34942 4.13325 6.34942 4.33825V6.38825C6.34942 6.56825 6.49942 6.83325 6.65442 6.92325L8.20442 7.84825C8.38442 7.95325 8.44442 8.18325 8.33442 8.36325Z" fill="#32270E"/>
</svg>
