<svg width="32" height="33" viewBox="0 0 32 33" fill="none" xmlns="http://www.w3.org/2000/svg">
<path d="M15.9998 3.54932C8.65317 3.54932 2.6665 9.53598 2.6665 16.8826C2.6665 24.2293 8.65317 30.216 15.9998 30.216C23.3465 30.216 29.3332 24.2293 29.3332 16.8826C29.3332 9.53598 23.3465 3.54932 15.9998 3.54932ZM21.7998 21.6426C21.6132 21.9626 21.2798 22.136 20.9332 22.136C20.7598 22.136 20.5865 22.096 20.4265 21.9893L16.2932 19.5226C15.2665 18.9093 14.5065 17.5626 14.5065 16.376V10.9093C14.5065 10.3626 14.9598 9.90932 15.5065 9.90932C16.0532 9.90932 16.5065 10.3626 16.5065 10.9093V16.376C16.5065 16.856 16.9065 17.5626 17.3198 17.8026L21.4532 20.2693C21.9332 20.5493 22.0932 21.1626 21.7998 21.6426Z" fill="#32270E"/>
</svg>
