<svg width="184" height="49" viewBox="0 0 184 49" fill="none" xmlns="http://www.w3.org/2000/svg">
<path d="M80.0376 13.9823C80.0376 12.2272 78.6149 10.8047 76.86 10.8047C75.1051 10.8047 73.6824 12.2272 73.6824 13.9823C73.6824 15.7371 75.1051 17.1597 76.86 17.1597C78.6149 17.1597 80.0376 15.7371 80.0376 13.9823Z" fill="#E60023"/>
<path d="M85.7172 18.4338H80.6149V35.0731H85.9122V25.876C85.9122 23.8286 87.0822 22.3661 88.8371 22.3661C90.5595 22.3661 91.4369 23.5686 91.4369 25.3236V35.0731H96.7342V24.2511C96.7342 20.5463 94.5893 17.9464 90.9495 17.9464C88.642 17.9464 87.0496 18.9212 85.8146 20.7087H85.7172V18.4338Z" fill="#E60023"/>
<path d="M79.5089 18.4338H74.2115V35.0731H79.5089V18.4338Z" fill="#E60023"/>
<path d="M133.464 18.174C133.666 18.174 133.84 18.18 133.991 18.1937V22.8104C130.962 22.5303 129.044 24.1352 129.044 27.5985V35.0731H123.747V18.434H128.816V21.0338H128.914C130.084 19.0514 131.449 18.174 133.464 18.174Z" fill="#E60023"/>
<path d="M159.987 24.576C159.726 24.5279 159.469 24.4833 159.218 24.4398C157.438 24.1307 155.989 23.8793 155.989 22.8538C155.989 21.8137 156.997 21.3263 158.297 21.3263C159.759 21.3263 160.767 21.7812 160.962 23.2763H165.836C165.576 19.9939 163.042 17.9464 158.329 17.9464C154.397 17.9464 151.147 19.7664 151.147 23.2763C151.147 27.1759 154.234 27.9559 157.127 28.4435C157.358 28.4843 157.587 28.5226 157.812 28.5602C159.736 28.8821 161.352 29.1523 161.352 30.4908C161.352 31.5634 160.344 32.1483 158.752 32.1483C157.154 32.1483 156.097 31.4724 155.773 30.101H150.726C151.097 33.5215 154.1 35.5931 158.784 35.5931C163.139 35.5931 166.356 33.7083 166.356 30.0685C166.356 25.811 162.911 25.0636 159.987 24.576Z" fill="#E60023"/>
<path fill-rule="evenodd" clip-rule="evenodd" d="M138.763 28.1183C139.088 30.3607 140.323 31.758 142.501 31.758C143.898 31.758 144.808 31.1408 145.263 30.1009H150.43C150.073 31.5957 149.098 33.0257 147.636 34.0331C146.238 35.0081 144.548 35.5606 142.436 35.5606C136.944 35.5606 133.564 31.758 133.564 26.721C133.564 21.7485 137.041 17.9463 142.111 17.9463C144.483 17.9463 146.368 18.7264 147.798 20.0263C149.781 21.8461 150.755 24.7386 150.723 28.1183H138.763ZM145.361 24.9661C145.166 22.9835 143.931 21.7161 142.208 21.7161C140.193 21.7161 139.153 22.9835 138.796 24.9661H145.361Z" fill="#E60023"/>
<path d="M175.686 31.1495L175.621 31.1521C175.384 31.1616 175.085 31.1735 174.808 31.1735C173.671 31.1735 172.956 30.8484 172.956 29.5484V21.7488H175.686V18.4339H172.956V13.1692H167.788V18.4339H166.163V21.7488H167.788V30.6859C167.788 34.2609 169.998 35.2682 173.086 35.2682C174.264 35.2682 175.154 35.18 175.686 35.0762V31.1495Z" fill="#E60023"/>
<path d="M105.511 31.1732C105.739 31.1732 105.983 31.165 106.194 31.1568V35.1103C105.651 35.1984 104.833 35.2679 103.789 35.2679C100.701 35.2679 98.4914 34.2606 98.4914 30.6856V21.7485H96.7684V18.4337H98.4914V13.1689H103.659V18.4337H106.194V21.7485H103.659V29.5482C103.659 30.8481 104.374 31.1732 105.511 31.1732Z" fill="#E60023"/>
<path fill-rule="evenodd" clip-rule="evenodd" d="M105.936 26.721C105.936 21.7487 109.413 17.9465 114.483 17.9465C116.855 17.9465 118.74 18.7264 120.17 20.0263C122.153 21.8462 123.127 24.7386 123.095 28.1185H111.136C111.46 30.3607 112.695 31.7582 114.873 31.7582C116.27 31.7582 117.18 31.1408 117.635 30.1009H122.802C122.445 31.5957 121.47 33.0257 120.007 34.0333C118.61 35.0081 116.92 35.5606 114.808 35.5606C109.315 35.5606 105.936 31.7582 105.936 26.721ZM117.733 24.9661C117.538 22.9837 116.303 21.7161 114.58 21.7161C112.565 21.7161 111.525 22.9837 111.168 24.9661H117.733Z" fill="#E60023"/>
<path fill-rule="evenodd" clip-rule="evenodd" d="M64.7854 11.8367H55.5864V35.0731H60.9494V27.3061H65.5977C70.3751 27.3061 73.4625 24.1536 73.4625 19.7013C73.4625 17.3615 72.6175 15.3789 71.1225 13.9816C69.6926 12.6166 67.6126 11.8367 64.7854 11.8367ZM68.2618 19.6687C68.2618 21.5212 67.0919 22.7562 65.012 22.7562H60.9494V16.679H65.012C67.0593 16.679 68.2618 17.8164 68.2618 19.6687Z" fill="#E60023"/>
<path d="M48.3145 24.1533C48.3145 35.199 39.3601 44.1533 28.3145 44.1533C17.2688 44.1533 8.31445 35.199 8.31445 24.1533C8.31445 13.1075 17.2688 4.15332 28.3145 4.15332C39.3601 4.15332 48.3145 13.1075 48.3145 24.1533Z" fill="white"/>
<path d="M28.3145 4.15332C17.2688 4.15332 8.31445 13.1077 8.31445 24.1533C8.31445 32.6263 13.5861 39.8696 21.0259 42.7837C20.8512 41.2013 20.6931 38.7677 21.0953 37.0402C21.4588 35.4793 23.4405 27.0989 23.4405 27.0989C23.4405 27.0989 22.8423 25.9008 22.8423 24.1295C22.8423 21.3485 24.4542 19.2723 26.4612 19.2723C28.1676 19.2723 28.9917 20.5534 28.9917 22.0896C28.9917 23.8056 27.8992 26.3712 27.3354 28.7487C26.8642 30.7393 28.3336 32.3627 30.297 32.3627C33.8517 32.3627 36.5842 28.6146 36.5842 23.2042C36.5842 18.4156 33.1433 15.0675 28.23 15.0675C22.5393 15.0675 19.1991 19.3358 19.1991 23.7469C19.1991 25.4659 19.8613 27.3091 20.6876 28.3111C20.851 28.5092 20.8749 28.6826 20.8263 28.8848C20.6744 29.5165 20.337 30.8749 20.2708 31.153C20.1836 31.519 19.981 31.5968 19.6019 31.4204C17.104 30.2577 15.5423 26.6056 15.5423 23.6723C15.5423 17.3634 20.1262 11.5694 28.7571 11.5694C35.6951 11.5694 41.0868 16.5133 41.0868 23.1205C41.0868 30.0132 36.7407 35.5605 30.7085 35.5605C28.6819 35.5605 26.7766 34.5076 26.1245 33.2639C26.1245 33.2639 25.1216 37.0825 24.8785 38.0183C24.427 39.7555 23.2081 41.933 22.3928 43.2615C24.264 43.8408 26.2527 44.1533 28.3145 44.1533C39.3603 44.1533 48.3146 35.199 48.3146 24.1533C48.3146 13.1077 39.3603 4.15332 28.3145 4.15332Z" fill="#E60023"/>
</svg>
