<svg width="94" height="25" viewBox="0 0 94 25" fill="none" xmlns="http://www.w3.org/2000/svg">
<path d="M41.0869 7.26438C41.0869 6.37349 40.3647 5.65137 39.4739 5.65137C38.5831 5.65137 37.8609 6.37349 37.8609 7.26438C37.8609 8.15519 38.5831 8.87731 39.4739 8.87731C40.3647 8.87731 41.0869 8.15519 41.0869 7.26438Z" fill="#E60023"/>
<path d="M43.97 9.52409H41.38V17.9706H44.069V13.3019C44.069 12.2626 44.663 11.5202 45.5538 11.5202C46.4281 11.5202 46.8735 12.1306 46.8735 13.0215V17.9706H49.5625V12.4771C49.5625 10.5964 48.4737 9.27667 46.6261 9.27667C45.4547 9.27667 44.6464 9.77151 44.0195 10.6789H43.97V9.52409Z" fill="#E60023"/>
<path d="M40.8186 9.52409H38.1295V17.9706H40.8186V9.52409Z" fill="#E60023"/>
<path d="M68.2072 9.39218C68.3101 9.39218 68.3981 9.39526 68.4748 9.40217V11.7457C66.9372 11.6036 65.9636 12.4182 65.9636 14.1763V17.9706H63.2746V9.52417H65.8482V10.8439H65.8976C66.4915 9.83759 67.1844 9.39218 68.2072 9.39218Z" fill="#E60023"/>
<path d="M81.6708 12.642C81.5384 12.6176 81.4079 12.5949 81.2806 12.5728C80.3769 12.416 79.6417 12.2883 79.6417 11.7678C79.6417 11.2398 80.1531 10.9924 80.8129 10.9924C81.5553 10.9924 82.0668 11.2233 82.1657 11.9822H84.6403C84.5083 10.316 83.2215 9.27666 80.8296 9.27666C78.8333 9.27666 77.1836 10.2005 77.1836 11.9822C77.1836 13.9617 78.7509 14.3577 80.2191 14.6052C80.3364 14.6259 80.4527 14.6454 80.5667 14.6644C81.5436 14.8278 82.3637 14.965 82.3637 15.6445C82.3637 16.1889 81.8523 16.4859 81.044 16.4859C80.233 16.4859 79.6966 16.1427 79.5321 15.4466H76.9698C77.1584 17.1829 78.6825 18.2345 81.0604 18.2345C83.2711 18.2345 84.9042 17.2777 84.9042 15.4301C84.9042 13.2689 83.1556 12.8895 81.6708 12.642Z" fill="#E60023"/>
<path fill-rule="evenodd" clip-rule="evenodd" d="M70.8974 14.4401C71.0624 15.5784 71.6893 16.2878 72.7946 16.2878C73.504 16.2878 73.9658 15.9744 74.1968 15.4465H76.8198C76.6384 16.2054 76.1435 16.9312 75.4011 17.4426C74.6917 17.9375 73.8338 18.218 72.7616 18.218C69.9736 18.218 68.2579 16.2878 68.2579 13.7308C68.2579 11.2067 70.0231 9.27661 72.5966 9.27661C73.8009 9.27661 74.7577 9.67259 75.4836 10.3325C76.49 11.2562 76.9849 12.7245 76.9684 14.4401H70.8974ZM74.2463 12.84C74.1473 11.8336 73.5205 11.1902 72.6461 11.1902C71.6234 11.1902 71.0954 11.8336 70.914 12.84H74.2463Z" fill="#E60023"/>
<path d="M89.6402 15.9789L89.6072 15.9802C89.4869 15.985 89.3351 15.991 89.1946 15.991C88.6171 15.991 88.2543 15.826 88.2543 15.1661V11.2068H89.6402V9.52414H88.2543V6.85163H85.6312V9.52414H84.8059V11.2068H85.6312V15.7435C85.6312 17.5582 86.753 18.0696 88.3202 18.0696C88.9182 18.0696 89.3702 18.0248 89.6402 17.9721V15.9789Z" fill="#E60023"/>
<path d="M54.0178 15.9909C54.1335 15.9909 54.2574 15.9867 54.3646 15.9825V17.9894C54.089 18.0341 53.6738 18.0694 53.1435 18.0694C51.5763 18.0694 50.4545 17.5581 50.4545 15.7434V11.2067H49.5798V9.52401H50.4545V6.85149H53.0775V9.52401H54.3646V11.2067H53.0775V15.166C53.0775 15.8258 53.4405 15.9909 54.0178 15.9909Z" fill="#E60023"/>
<path fill-rule="evenodd" clip-rule="evenodd" d="M54.2334 13.7308C54.2334 11.2068 55.9985 9.2767 58.5721 9.2767C59.7763 9.2767 60.7332 9.67259 61.4591 10.3325C62.4654 11.2563 62.9602 12.7245 62.9438 14.4402H56.873C57.0378 15.5784 57.6647 16.2878 58.7701 16.2878C59.4794 16.2878 59.9414 15.9744 60.1722 15.4465H62.7953C62.6138 16.2054 62.1189 16.9312 61.3765 17.4427C60.6672 17.9375 59.8094 18.218 58.737 18.218C55.949 18.218 54.2334 16.2878 54.2334 13.7308ZM60.2218 12.84C60.1229 11.8337 59.4959 11.1902 58.6215 11.1902C57.5987 11.1902 57.0709 11.8337 56.8893 12.84H60.2218Z" fill="#E60023"/>
<path fill-rule="evenodd" clip-rule="evenodd" d="M33.3446 6.17523H28.675V17.9706H31.3974V14.0278H33.7569C36.182 14.0278 37.7493 12.4275 37.7493 10.1675C37.7493 8.97973 37.3204 7.97333 36.5615 7.26402C35.8356 6.57112 34.7798 6.17523 33.3446 6.17523ZM35.1093 10.1509C35.1093 11.0913 34.5154 11.7182 33.4596 11.7182H31.3974V8.63328H33.4596C34.4989 8.63328 35.1093 9.21067 35.1093 10.1509Z" fill="#E60023"/>
<path d="M24.9835 12.4276C24.9835 18.0346 20.4381 22.5801 14.8311 22.5801C9.22408 22.5801 4.67865 18.0346 4.67865 12.4276C4.67865 6.82055 9.22408 2.2752 14.8311 2.2752C20.4381 2.2752 24.9835 6.82055 24.9835 12.4276Z" fill="white"/>
<path d="M14.8311 2.2752C9.22408 2.2752 4.67865 6.82063 4.67865 12.4276C4.67865 16.7287 7.35466 20.4056 11.1313 21.8848C11.0426 21.0816 10.9623 19.8462 11.1665 18.9693C11.351 18.177 12.357 13.9229 12.357 13.9229C12.357 13.9229 12.0533 13.3147 12.0533 12.4156C12.0533 11.0039 12.8715 9.94995 13.8903 9.94995C14.7565 9.94995 15.1749 10.6002 15.1749 11.38C15.1749 12.2511 14.6203 13.5535 14.3341 14.7604C14.0949 15.7708 14.8408 16.5949 15.8375 16.5949C17.6419 16.5949 19.029 14.6923 19.029 11.9459C19.029 9.51503 17.2823 7.81547 14.7882 7.81547C11.8995 7.81547 10.2039 9.98216 10.2039 12.2213C10.2039 13.0939 10.5401 14.0296 10.9595 14.5382C11.0425 14.6388 11.0546 14.7268 11.0299 14.8294C10.9529 15.1501 10.7816 15.8397 10.748 15.9808C10.7037 16.1666 10.6008 16.2061 10.4084 16.1165C9.14044 15.5263 8.34767 13.6725 8.34767 12.1835C8.34767 8.98091 10.6746 6.03975 15.0558 6.03975C18.5777 6.03975 21.3146 8.5494 21.3146 11.9033C21.3146 15.4022 19.1085 18.2182 16.0464 18.2182C15.0176 18.2182 14.0505 17.6837 13.7194 17.0524C13.7194 17.0524 13.2103 18.9908 13.0869 19.4658C12.8577 20.3476 12.239 21.453 11.8251 22.1274C12.775 22.4215 13.7845 22.5801 14.8311 22.5801C20.4382 22.5801 24.9836 18.0346 24.9836 12.4276C24.9836 6.82063 20.4382 2.2752 14.8311 2.2752Z" fill="#E60023"/>
</svg>
