<svg width="82" height="29" viewBox="0 0 82 29" fill="none" xmlns="http://www.w3.org/2000/svg">
<path d="M14.1581 25.6358H19.4021C20.7922 25.6343 22.1249 25.0813 23.1079 24.0984C24.0909 23.1154 24.6438 21.7827 24.6453 20.3925V8.50671C24.644 7.11646 24.0911 5.78354 23.1082 4.80041C22.1252 3.81729 20.7923 3.26427 19.4021 3.2627H14.1581V25.6358ZM2.27222 20.3925C2.27379 21.7827 2.82671 23.1154 3.80967 24.0984C4.79263 25.0813 6.12537 25.6343 7.51549 25.6358H12.7595V9.80362H7.51549C6.12524 9.80519 4.79239 10.3582 3.80941 11.3413C2.82642 12.3245 2.27359 13.6574 2.27222 15.0476V20.3925Z" fill="#32270E"/>
<path d="M33.5464 12.4227C33.3957 12.4253 33.2456 12.4047 33.1012 12.3618C32.986 12.3277 32.8789 12.2703 32.7866 12.1934C32.7045 12.1242 32.6399 12.0364 32.5982 11.9374C32.5553 11.8338 32.5324 11.7231 32.5307 11.611C32.3563 11.5888 32.1885 11.5304 32.038 11.4396C31.8866 11.3468 31.7549 11.225 31.6507 11.0812C31.5374 10.9224 31.4516 10.7455 31.397 10.5582C31.3342 10.3412 31.3037 10.1162 31.3065 9.89042C31.3032 9.64346 31.3413 9.3977 31.4192 9.16332C31.4863 8.96253 31.5908 8.77624 31.7271 8.61429C31.8536 8.46732 32.0109 8.35003 32.1879 8.27077C32.3665 8.19029 32.5603 8.14929 32.7562 8.15058C32.9514 8.1491 33.1446 8.19011 33.3223 8.27077C33.4985 8.35031 33.655 8.46758 33.7808 8.61429C33.9172 8.77575 34.0207 8.96224 34.0858 9.16332C34.2284 9.61935 34.2338 10.1072 34.1013 10.5663C34.0452 10.7553 33.9566 10.9331 33.8394 11.0916C33.7316 11.2362 33.5952 11.3572 33.4388 11.447C33.2835 11.5361 33.1115 11.5921 32.9335 11.6117C32.9402 11.6942 32.9656 11.7742 33.0077 11.8454C33.0441 11.9045 33.0952 11.9531 33.1561 11.9864C33.2254 12.023 33.3009 12.0467 33.3787 12.0561C33.4736 12.0686 33.5693 12.0745 33.6651 12.0739H33.8951V12.4227H33.5464ZM32.7547 11.2808C32.8988 11.2823 33.0413 11.2503 33.1709 11.1873C33.3 11.1234 33.4124 11.0302 33.4989 10.915C33.5972 10.7839 33.6704 10.6358 33.7148 10.478C33.8183 10.0956 33.8183 9.69262 33.7148 9.31023C33.6706 9.15378 33.5973 9.00705 33.4989 8.87768C33.4119 8.76384 33.2995 8.67189 33.1707 8.60916C33.0419 8.54643 32.9002 8.51465 32.7569 8.51635C32.6105 8.51471 32.4656 8.54642 32.3333 8.6091C32.2027 8.6719 32.0883 8.76378 31.9987 8.87768C31.8992 9.00653 31.8257 9.15342 31.782 9.31023C31.6804 9.69286 31.6804 10.0954 31.782 10.478C31.8259 10.6361 31.8995 10.7844 31.9987 10.915C32.0874 11.0307 32.202 11.1239 32.3333 11.1873C32.4656 11.2503 32.6105 11.2822 32.7569 11.2808" fill="#32270E"/>
<path d="M35.4309 11.6132C35.3351 11.62 35.239 11.6071 35.1484 11.5753C35.0578 11.5436 34.9747 11.4936 34.9041 11.4285C34.8405 11.3573 34.7918 11.2742 34.7607 11.184C34.7296 11.0939 34.7168 10.9984 34.7231 10.9032V9.17891H35.1148V10.823C35.104 10.9498 35.141 11.0761 35.2187 11.1769C35.2633 11.2182 35.3161 11.2496 35.3736 11.2691C35.4311 11.2887 35.4921 11.296 35.5526 11.2905C35.6929 11.2916 35.8311 11.2558 35.9532 11.1866C36.0875 11.1078 36.212 11.0134 36.3242 10.9054V9.17891H36.7204V11.5709H36.3242V11.2126C36.2711 11.2662 36.214 11.3158 36.1535 11.3609C36.0883 11.4107 36.0185 11.4542 35.945 11.4908C35.867 11.5288 35.7852 11.5587 35.701 11.5798C35.6117 11.6024 35.52 11.6136 35.4279 11.6132" fill="#32270E"/>
<path d="M37.9409 11.6058C37.7628 11.6155 37.5873 11.5599 37.4475 11.4492C37.3858 11.3934 37.3374 11.3244 37.3059 11.2473C37.2745 11.1703 37.2607 11.0871 37.2657 11.0041C37.2648 10.8869 37.2939 10.7714 37.3503 10.6687C37.4174 10.5547 37.5107 10.4583 37.6226 10.3875C37.7758 10.2902 37.9422 10.2152 38.1167 10.1649C38.3623 10.0926 38.613 10.0392 38.8668 10.0054V9.8971C38.8752 9.83596 38.8691 9.77371 38.8492 9.71532C38.8292 9.65692 38.7959 9.604 38.7519 9.56076C38.7078 9.51752 38.6543 9.48517 38.5956 9.46627C38.5368 9.44738 38.4745 9.44247 38.4135 9.45194C38.2475 9.44829 38.083 9.48388 37.9334 9.55581C37.7949 9.62497 37.6655 9.71121 37.5484 9.81252L37.3451 9.56916C37.4879 9.43935 37.6498 9.33225 37.8251 9.25162C38.0234 9.16325 38.2388 9.11992 38.4558 9.12474C38.5792 9.122 38.7021 9.14032 38.8193 9.17891C38.9128 9.21022 38.9973 9.26368 39.0656 9.33471C39.1316 9.40659 39.1796 9.49302 39.2059 9.58697C39.2373 9.6962 39.2525 9.80943 39.2511 9.92307V10.9788C39.2502 11.098 39.2554 11.2171 39.2667 11.3357C39.2738 11.415 39.2918 11.4929 39.3201 11.5672H38.921C38.9046 11.516 38.892 11.4648 38.8809 11.4188C38.8699 11.3594 38.8647 11.299 38.8653 11.2385C38.6177 11.479 38.2853 11.6123 37.9401 11.6095L37.9409 11.6058ZM38.0529 11.3016C38.2063 11.3039 38.3583 11.2723 38.4981 11.2088C38.6355 11.1452 38.761 11.0584 38.869 10.9521V10.2844C38.6756 10.314 38.4841 10.3551 38.2955 10.4076C38.1647 10.4419 38.0384 10.4917 37.9193 10.5559C37.8375 10.5996 37.7673 10.6621 37.7146 10.7385C37.6745 10.8011 37.6534 10.874 37.6537 10.9484C37.6504 10.9975 37.6583 11.0467 37.6766 11.0923C37.695 11.1379 37.7235 11.1787 37.7598 11.2118C37.8445 11.277 37.95 11.3092 38.0566 11.3023" fill="#32270E"/>
<path d="M40.3351 8.21587H39.9456V11.5702H40.3351V8.21587Z" fill="#32270E"/>
<path d="M41.8895 11.6021C41.7036 11.6221 41.5173 11.5688 41.3701 11.4537C41.2618 11.3257 41.2084 11.1601 41.2217 10.9929V9.49942H40.8055V9.17891H41.2217V8.32716H41.6135V9.17891H42.233V9.49942H41.6135V10.9017C41.6052 11.0023 41.6313 11.1028 41.6876 11.1866C41.7269 11.2236 41.7739 11.2515 41.8252 11.268C41.8766 11.2846 41.931 11.2895 41.9844 11.2823C42.0274 11.2821 42.0702 11.2792 42.1128 11.2734C42.1516 11.2689 42.1901 11.2614 42.2278 11.2511V11.5724C42.1959 11.5783 42.1454 11.5843 42.0794 11.5902C42.0134 11.5961 41.9488 11.5991 41.8902 11.5991" fill="#32270E"/>
<path d="M42.7597 11.5717V9.17891H43.1493V9.62407H43.1582C43.2488 9.4813 43.3706 9.36083 43.5143 9.27165C43.6873 9.17015 43.8859 9.12069 44.0863 9.1292H44.1353L44.1086 9.492C44.0896 9.48819 44.0701 9.48694 44.0507 9.48829H43.9951C43.8186 9.48428 43.645 9.53311 43.4965 9.62852C43.3483 9.72898 43.2295 9.86699 43.1522 10.0284V11.5717H42.7597Z" fill="#32270E"/>
<path d="M44.5894 8.28487H44.9967V8.66548H44.5894V8.28487ZM44.5983 9.1752H44.987V11.5672H44.5983V9.1752Z" fill="#32270E"/>
<path d="M46.6319 11.6214C46.4944 11.6216 46.3582 11.5943 46.2313 11.5412C46.1024 11.4882 45.9865 11.4079 45.8915 11.306C45.788 11.1929 45.7079 11.0606 45.6555 10.9165C45.5937 10.742 45.5638 10.5578 45.5672 10.3727C45.5627 10.1816 45.5949 9.99142 45.6622 9.81252C45.718 9.66706 45.804 9.53507 45.9145 9.42523C46.0159 9.32752 46.1364 9.25175 46.2684 9.20265C46.3949 9.15439 46.5291 9.12926 46.6646 9.12845C46.7845 9.12597 46.904 9.1443 47.0177 9.18261C47.1133 9.21679 47.2024 9.26697 47.2811 9.331C47.3563 9.39184 47.4207 9.46481 47.4718 9.54691C47.5224 9.62778 47.5663 9.71264 47.6031 9.80065L47.2715 9.93791C47.224 9.80208 47.1431 9.68038 47.0363 9.584C46.9284 9.49912 46.7935 9.45593 46.6564 9.46233C46.5693 9.46188 46.483 9.478 46.4019 9.50981C46.3167 9.54384 46.2405 9.59717 46.1793 9.66562C46.1071 9.74775 46.0528 9.84402 46.0198 9.94829C45.9765 10.0865 45.9562 10.2309 45.9597 10.3757C45.944 10.6182 46.0112 10.859 46.1504 11.0582C46.2085 11.1342 46.2837 11.1954 46.37 11.2367C46.4563 11.2779 46.5511 11.2982 46.6468 11.2957C46.7808 11.3013 46.913 11.2632 47.0237 11.1873C47.1416 11.088 47.2325 10.9603 47.2878 10.8164L47.6113 10.9425C47.5676 11.0394 47.5142 11.1317 47.4518 11.2177C47.3934 11.2992 47.3231 11.3715 47.2433 11.4322C47.1629 11.4935 47.0729 11.5412 46.9769 11.5731C46.865 11.609 46.748 11.6263 46.6304 11.6243" fill="#32270E"/>
<path d="M48.9008 11.6147C48.7016 11.6182 48.504 11.579 48.3213 11.4997C48.1675 11.4347 48.0311 11.3346 47.9229 11.2074L48.1573 10.9729C48.2496 11.0699 48.3581 11.15 48.4779 11.2096C48.611 11.2738 48.7574 11.3056 48.9052 11.3023C49.054 11.3116 49.2024 11.2787 49.3333 11.2074C49.381 11.1781 49.4199 11.1365 49.446 11.0871C49.4721 11.0376 49.4844 10.982 49.4817 10.9262C49.4842 10.8716 49.4711 10.8175 49.4439 10.7702C49.4167 10.7229 49.3765 10.6843 49.3281 10.6591C49.182 10.5862 49.0268 10.5333 48.8666 10.5018C48.74 10.4706 48.6233 10.437 48.5164 10.4009C48.4205 10.3697 48.3297 10.3245 48.2471 10.2666C48.1749 10.2153 48.1155 10.148 48.0735 10.07C48.0287 9.98001 48.0071 9.88031 48.0104 9.77987C48.0099 9.69213 48.0292 9.6054 48.0668 9.52613C48.1056 9.44589 48.1618 9.37539 48.2315 9.31987C48.3104 9.25659 48.4005 9.20876 48.4971 9.1789C48.6109 9.14311 48.7296 9.12583 48.8488 9.12771C49.0305 9.1225 49.2114 9.15378 49.3808 9.21971C49.5221 9.28008 49.6513 9.36555 49.7621 9.47197L49.5589 9.73091C49.4675 9.644 49.3618 9.57348 49.2465 9.52242C49.1268 9.46899 48.997 9.44192 48.8659 9.44303C48.7345 9.43114 48.6031 9.4661 48.4949 9.54171C48.4615 9.56862 48.4343 9.60245 48.4152 9.64087C48.3961 9.6793 48.3856 9.72141 48.3844 9.76429C48.3818 9.81456 48.3936 9.86451 48.4184 9.90828C48.4433 9.95205 48.4801 9.98782 48.5246 10.0114C48.6595 10.0775 48.8028 10.1252 48.9505 10.1531C49.0855 10.1872 49.2094 10.2221 49.3214 10.2584C49.4236 10.2898 49.5206 10.336 49.6093 10.3957C49.6873 10.4479 49.7513 10.5184 49.7955 10.6012C49.8421 10.6972 49.8645 10.8032 49.8608 10.9098C49.8625 11.0159 49.837 11.1207 49.7866 11.214C49.7388 11.3033 49.6701 11.3797 49.5863 11.4366C49.4934 11.4983 49.3905 11.5433 49.2821 11.5694C49.1581 11.5999 49.0307 11.6148 48.903 11.6139" fill="#32270E"/>
<path d="M77.409 14.9341V13.7663H76.995V13.6224H77.9847V13.7663H77.567V14.9341H77.409Z" fill="#32270E"/>
<path d="M78.2014 14.9341V13.6224H78.4054L78.8179 14.7353L79.223 13.6224H79.4308V14.9341H79.2772V13.8724C79.2675 13.9073 79.2549 13.9466 79.2408 13.9859C79.2267 14.0252 79.2119 14.0698 79.1963 14.1135L78.8832 14.9341H78.743L78.4299 14.1135C78.421 14.092 78.4136 14.072 78.4069 14.0534C78.4002 14.0349 78.3943 14.0156 78.3876 13.9963C78.3809 13.977 78.3742 13.9577 78.3683 13.9369L78.3475 13.8665V14.9334L78.2014 14.9341Z" fill="#32270E"/>
<path d="M31.6663 20.811V13.6231H33.8713C34.3869 13.6188 34.9008 13.6809 35.4005 13.8079C35.8461 13.9191 36.2621 14.1262 36.6195 14.4148C36.9734 14.7113 37.2499 15.0894 37.4252 15.5165C37.6334 16.0452 37.7325 16.6105 37.7168 17.1785C37.7333 17.7614 37.6324 18.3418 37.42 18.8849C37.2433 19.3197 36.9632 19.7048 36.6039 20.0067C36.2458 20.2961 35.8303 20.506 35.3849 20.6225C34.8913 20.753 34.3826 20.8168 33.8721 20.8125L31.6663 20.811ZM33.231 19.5304H33.973C34.3106 19.5379 34.6472 19.4916 34.9701 19.3932C35.2262 19.3139 35.4576 19.1703 35.6423 18.9762C35.825 18.7699 35.9537 18.5217 36.017 18.2535C36.1006 17.9082 36.1397 17.5537 36.1335 17.1985C36.1826 16.5894 36.0038 15.9837 35.632 15.4987C35.4063 15.2946 35.1403 15.1401 34.8513 15.045C34.5622 14.9499 34.2565 14.9165 33.9537 14.9467H33.2318L33.231 19.5304Z" fill="#32270E"/>
<path d="M38.0878 18.2261C38.0738 17.7876 38.1614 17.3519 38.3437 16.9529C38.4961 16.6326 38.7161 16.3492 38.9885 16.122C39.2378 15.9169 39.5245 15.7622 39.8328 15.6664C40.1089 15.5776 40.3968 15.5306 40.6868 15.5269C40.9651 15.5287 41.2418 15.5694 41.5088 15.6479C41.7967 15.7311 42.0603 15.8822 42.2775 16.0886C42.5291 16.3363 42.7225 16.6368 42.8436 16.9685C43.007 17.431 43.0824 17.9199 43.0662 18.4101V18.6445H39.6384C39.6316 18.8024 39.6584 18.9599 39.7171 19.1066C39.7758 19.2533 39.8651 19.3858 39.9791 19.4953C40.093 19.6048 40.2289 19.6887 40.3778 19.7416C40.5267 19.7945 40.6851 19.8151 40.8426 19.802C41.142 19.8042 41.4383 19.7409 41.7106 19.6165C41.9528 19.5098 42.1778 19.3677 42.3784 19.1951L42.9808 20.1225C42.3557 20.6599 41.5524 20.9444 40.7283 20.9201C40.3952 20.9209 40.0637 20.8729 39.7445 20.7776C39.4341 20.6868 39.1465 20.531 38.9009 20.3206C38.6419 20.0934 38.4388 19.8096 38.3074 19.4911C38.1482 19.0902 38.0725 18.661 38.0848 18.2298L38.0878 18.2261ZM39.654 17.7268H41.6646C41.589 17.0091 41.2586 16.6502 40.6734 16.6502C40.4335 16.6489 40.2022 16.7392 40.0265 16.9025C39.8124 17.1266 39.6815 17.4172 39.6555 17.726" fill="#32270E"/>
<path d="M43.3036 20.1232L43.9246 19.2604C44.1719 19.472 44.4565 19.6358 44.7637 19.7434C45.0724 19.8581 45.3989 19.9179 45.7282 19.9199C45.9335 19.9283 46.1375 19.8852 46.3218 19.7945C46.3913 19.7611 46.4497 19.7084 46.49 19.6426C46.5303 19.5767 46.5507 19.5007 46.5488 19.4236C46.5527 19.3441 46.5338 19.2652 46.4943 19.196C46.4549 19.1269 46.3966 19.0705 46.3262 19.0333C46.0869 18.9222 45.8319 18.8486 45.5702 18.8152C45.3229 18.7717 45.0783 18.7222 44.8364 18.6668C44.6071 18.615 44.3872 18.5281 44.1843 18.4094C43.9945 18.2973 43.8336 18.1423 43.7146 17.9568C43.5853 17.7373 43.5224 17.4849 43.5336 17.2304C43.5281 16.9826 43.5788 16.7368 43.682 16.5115C43.7808 16.304 43.9257 16.1218 44.1056 15.9788C44.2958 15.8299 44.5119 15.7174 44.7429 15.6471C45.0036 15.5679 45.2748 15.5291 45.5472 15.5321C45.9957 15.5186 46.4428 15.5888 46.8656 15.7391C47.2108 15.8757 47.5315 16.0674 47.8153 16.3067L47.2032 17.203C46.9612 17.0387 46.7016 16.9018 46.4294 16.7949C46.1929 16.702 45.9415 16.6532 45.6874 16.651C45.5065 16.64 45.3262 16.6812 45.1681 16.7697C45.1104 16.8062 45.0635 16.8576 45.0324 16.9184C45.0013 16.9792 44.987 17.0472 44.9911 17.1154C44.9952 17.1835 45.0175 17.2494 45.0557 17.306C45.0938 17.3627 45.1465 17.408 45.2081 17.4374C45.4312 17.5377 45.6676 17.6049 45.91 17.637C46.1628 17.6805 46.4153 17.73 46.6675 17.7854C46.9031 17.8361 47.1298 17.9214 47.3405 18.0384C47.5328 18.147 47.6968 18.2996 47.819 18.4835C47.9494 18.694 48.0138 18.9388 48.0038 19.1862C48.0113 19.4627 47.9464 19.7364 47.8153 19.98C47.6929 20.1979 47.5199 20.3832 47.3108 20.5202C47.0881 20.6631 46.842 20.7656 46.5837 20.8229C46.3027 20.8877 46.0152 20.9201 45.7268 20.9193C45.2366 20.9325 44.7482 20.8542 44.2867 20.6886C43.9304 20.555 43.5985 20.3637 43.3043 20.1225" fill="#32270E"/>
<path d="M48.6233 13.6743H50.2073V14.926H48.6233V13.6743ZM48.6329 15.633H50.1977V20.811H48.6337L48.6329 15.633Z" fill="#32270E"/>
<path d="M50.4989 21.5886C50.4961 21.4696 50.518 21.3513 50.5632 21.2413C50.6084 21.1312 50.676 21.0317 50.7615 20.949C50.939 20.7748 51.1497 20.638 51.3811 20.5469C51.271 20.4856 51.1796 20.3955 51.1169 20.2862C51.0542 20.1769 51.0224 20.0526 51.0249 19.9266C51.026 19.7086 51.1049 19.4981 51.2475 19.3331C51.3993 19.1491 51.5805 18.9916 51.7839 18.8671C51.517 18.7146 51.2965 18.4926 51.1459 18.2246C51.0029 17.9618 50.9296 17.6668 50.9329 17.3677C50.9313 17.1188 50.9837 16.8724 51.0865 16.6458C51.189 16.4203 51.3412 16.2209 51.5317 16.0626C51.7477 15.8875 51.9949 15.7548 52.2603 15.6716C52.9161 15.4784 53.6141 15.4807 54.2687 15.6783C54.5362 15.7648 54.7828 15.9061 54.9928 16.093C55.1824 15.9349 55.3971 15.8095 55.6279 15.7221C55.8502 15.6304 56.0856 15.5744 56.3253 15.5559V16.7274C56.2338 16.7274 56.1121 16.7338 55.9603 16.7467C55.7868 16.7639 55.6154 16.7976 55.4484 16.8476C55.5173 17.0119 55.5512 17.1888 55.5478 17.3669C55.552 17.622 55.5014 17.875 55.3994 18.1089C55.2964 18.3353 55.1443 18.536 54.9542 18.6965C54.7427 18.8731 54.4984 19.0063 54.2353 19.0882C53.9174 19.187 53.5858 19.2345 53.253 19.2292C53.1114 19.2296 52.9699 19.2217 52.8293 19.2054C52.6965 19.1899 52.5726 19.1691 52.4584 19.1439C52.4141 19.1811 52.3736 19.2226 52.3374 19.2678C52.308 19.306 52.2923 19.3531 52.2929 19.4013C52.2906 19.445 52.3045 19.4881 52.3318 19.5223C52.3592 19.5564 52.3981 19.5794 52.4413 19.5868C52.5816 19.621 52.725 19.6411 52.8694 19.6469L53.644 19.6981C54.305 19.6784 54.9614 19.8133 55.5611 20.0921C55.7492 20.2002 55.9034 20.3587 56.0064 20.5496C56.1094 20.7406 56.1572 20.9565 56.1443 21.1731C56.1495 21.4243 56.0713 21.6701 55.9217 21.872C55.7582 22.0838 55.5466 22.2537 55.3044 22.3676C55.0061 22.5091 54.689 22.6073 54.3629 22.6592C53.9693 22.7262 53.5706 22.7588 53.1714 22.7564C52.7469 22.7617 52.3226 22.7357 51.9019 22.6785C51.6178 22.6428 51.3405 22.5653 51.0791 22.4485C50.8985 22.3695 50.7441 22.2409 50.6339 22.0775C50.5438 21.9308 50.4969 21.7608 50.4989 21.5886ZM51.9546 21.3044C51.9526 21.4126 51.9839 21.5188 52.0443 21.6087C52.1047 21.6985 52.1912 21.7676 52.2922 21.8067C52.9786 22.0154 53.7106 22.0221 54.4007 21.826C54.651 21.731 54.7762 21.5997 54.7762 21.432C54.7777 21.3599 54.7622 21.2885 54.7309 21.2235C54.6875 21.152 54.6206 21.0977 54.5417 21.0699C54.4078 21.0177 54.2676 20.9835 54.1247 20.9683C53.9432 20.9426 53.7011 20.922 53.3984 20.9067L52.5823 20.8681L52.2417 20.8399C52.1576 20.8859 52.0867 20.9528 52.036 21.0341C51.9853 21.1155 51.9565 21.2086 51.9524 21.3044H51.9546ZM52.3886 17.4263C52.3798 17.6706 52.4611 17.9096 52.6171 18.0977C52.7002 18.1891 52.8027 18.2605 52.9172 18.3068C53.0316 18.353 53.155 18.3729 53.2782 18.3648C53.4013 18.3731 53.5247 18.3534 53.639 18.3071C53.7534 18.2609 53.8558 18.1893 53.9385 18.0977C54.0913 17.9081 54.1704 17.6696 54.1611 17.4263C54.1703 17.1897 54.0909 16.9582 53.9385 16.7771C53.7573 16.6116 53.5207 16.5199 53.2752 16.5199C53.0298 16.5199 52.7932 16.6116 52.6119 16.7771C52.4597 16.9584 52.3796 17.1898 52.3886 17.4263Z" fill="#32270E"/>
<path d="M56.7831 20.811V15.633H58.3479V16.4417C58.4329 16.331 58.5264 16.2271 58.6276 16.1309C58.7457 16.0175 58.8764 15.9179 59.0171 15.8341C59.1743 15.7402 59.3422 15.6654 59.5171 15.6115C59.718 15.5512 59.9269 15.5219 60.1367 15.5247C60.3425 15.5229 60.5474 15.5524 60.7443 15.6122C60.9217 15.6659 61.0855 15.7573 61.2243 15.8801C61.3633 16.0087 61.4702 16.168 61.5367 16.3453C61.6162 16.5639 61.6542 16.7953 61.6487 17.0279V20.811H60.084V17.522C60.0973 17.3339 60.0482 17.1467 59.9445 16.9893C59.8854 16.9244 59.812 16.8743 59.73 16.843C59.6481 16.8117 59.5599 16.8 59.4726 16.809C59.2679 16.8089 59.0665 16.8599 58.8865 16.9574C58.6939 17.0606 58.5135 17.185 58.3486 17.3283V20.8155L56.7831 20.811Z" fill="#32270E"/>
<path d="M62.1852 20.811L64.4852 17.013L62.3892 13.6231H64.1913L65.4764 15.7807L66.6902 13.6231H68.3225L66.274 17.0227L68.6029 20.811H66.8482L65.3213 18.2981L63.8471 20.811H62.1852Z" fill="#32270E"/>
<path d="M68.9212 20.811V13.6231H70.9986L72.602 18.9116H72.6301L74.1207 13.6239H76.2664V20.8117H74.738V15.9083H74.7083C74.6341 16.2095 74.5627 16.4815 74.4939 16.7244C74.4251 16.9673 74.3532 17.2242 74.278 17.4953L73.2244 20.811H71.8489L70.6922 17.1295L70.5794 16.7719C70.5409 16.6487 70.5052 16.5122 70.4719 16.3638C70.4385 16.2154 70.4043 16.0366 70.3672 15.8274H70.348V20.811H68.9212Z" fill="#32270E"/>
</svg>
