<svg width="160" height="57" viewBox="0 0 160 57" fill="none" xmlns="http://www.w3.org/2000/svg">
<path d="M27.4147 50.1906H37.7453C40.4838 50.1875 43.1092 49.0983 45.0457 47.1619C46.9821 45.2255 48.0713 42.6 48.0744 39.8615V16.4468C48.0717 13.708 46.9826 11.0822 45.0462 9.14547C43.1097 7.20874 40.484 6.11931 37.7453 6.11621H27.4147V50.1906ZM4 39.8615C4.00309 42.6 5.09233 45.2255 7.02874 47.1619C8.96515 49.0983 11.5906 50.1875 14.3291 50.1906H24.6596V19.0016H14.3291C11.5903 19.0047 8.96467 20.0942 7.02822 22.0309C5.09177 23.9676 4.00271 26.5934 4 29.3322V39.8615Z" fill="#32270E"/>
<path d="M65.6091 24.1611C65.3124 24.1662 65.0167 24.1258 64.7322 24.0412C64.5052 23.9739 64.2943 23.861 64.1125 23.7094C63.9506 23.573 63.8234 23.4002 63.7412 23.2052C63.6568 23.0011 63.6117 22.7829 63.6082 22.5621C63.2647 22.5184 62.9342 22.4034 62.6377 22.2244C62.3394 22.0417 62.0801 21.8018 61.8748 21.5185C61.6514 21.2055 61.4824 20.8572 61.3749 20.4881C61.2512 20.0607 61.1911 19.6175 61.1966 19.1726C61.1902 18.6861 61.2653 18.202 61.4187 17.7403C61.5509 17.3447 61.7567 16.9777 62.0253 16.6587C62.2745 16.3692 62.5844 16.1381 62.933 15.982C63.2848 15.8234 63.6667 15.7427 64.0525 15.7452C64.4371 15.7423 64.8176 15.8231 65.1677 15.982C65.5148 16.1387 65.8231 16.3697 66.071 16.6587C66.3396 16.9768 66.5437 17.3441 66.6717 17.7403C66.9527 18.6386 66.9633 19.5998 66.7024 20.5041C66.5919 20.8764 66.4173 21.2266 66.1865 21.539C65.974 21.8238 65.7054 22.0621 65.3972 22.2391C65.0913 22.4145 64.7524 22.525 64.4019 22.5635C64.4151 22.7261 64.465 22.8835 64.548 23.0239C64.6196 23.1404 64.7204 23.2361 64.8403 23.3016C64.9769 23.3738 65.1255 23.4203 65.2788 23.439C65.4659 23.4636 65.6544 23.4753 65.843 23.4741H66.2961V24.1611H65.6091ZM64.0496 21.9117C64.3335 21.9145 64.6142 21.8515 64.8696 21.7275C65.1239 21.6016 65.3451 21.4179 65.5156 21.1911C65.7092 20.9328 65.8534 20.6409 65.9409 20.3302C66.1448 19.5769 66.1448 18.783 65.9409 18.0297C65.8538 17.7215 65.7096 17.4324 65.5156 17.1776C65.3442 16.9533 65.1228 16.7722 64.8691 16.6486C64.6153 16.525 64.3362 16.4624 64.054 16.4658C63.7656 16.4625 63.4801 16.525 63.2194 16.6485C62.9622 16.7722 62.7367 16.9532 62.5603 17.1776C62.3643 17.4314 62.2194 17.7208 62.1335 18.0297C61.9332 18.7834 61.9332 19.5764 62.1335 20.3302C62.2199 20.6416 62.3648 20.9338 62.5603 21.1911C62.7351 21.4189 62.9608 21.6026 63.2194 21.7275C63.48 21.8515 63.7654 21.9144 64.054 21.9117" fill="#32270E"/>
<path d="M69.3216 22.5665C69.1329 22.5798 68.9435 22.5544 68.7651 22.4918C68.5866 22.4293 68.4228 22.3308 68.2839 22.2025C68.1586 22.0624 68.0625 21.8987 68.0013 21.721C67.9401 21.5434 67.9149 21.3552 67.9272 21.1677V17.771H68.6989V21.0099C68.6776 21.2597 68.7506 21.5084 68.9036 21.707C68.9914 21.7883 69.0954 21.8501 69.2087 21.8887C69.322 21.9272 69.4421 21.9415 69.5613 21.9307C69.8378 21.9329 70.11 21.8623 70.3506 21.726C70.6151 21.5708 70.8604 21.3849 71.0814 21.1721V17.771H71.8618V22.4831H71.0814V21.7772C70.9767 21.8828 70.8643 21.9805 70.7452 22.0695C70.6167 22.1676 70.4792 22.2533 70.3345 22.3253C70.1807 22.4002 70.0195 22.459 69.8536 22.5007C69.6778 22.5452 69.4971 22.5673 69.3157 22.5665" fill="#32270E"/>
<path d="M74.2662 22.5518C73.9154 22.5711 73.5697 22.4614 73.2942 22.2434C73.1727 22.1334 73.0774 21.9975 73.0154 21.8457C72.9534 21.6939 72.9263 21.5301 72.9361 21.3665C72.9343 21.1357 72.9916 20.9082 73.1027 20.7058C73.235 20.4812 73.4189 20.2913 73.6391 20.1519C73.9411 19.9601 74.2689 19.8125 74.6126 19.7134C75.0963 19.5708 75.5903 19.4658 76.0902 19.3992V19.1858C76.1067 19.0653 76.0948 18.9427 76.0555 18.8277C76.0162 18.7126 75.9505 18.6084 75.8638 18.5232C75.777 18.438 75.6716 18.3743 75.5559 18.3371C75.4402 18.2999 75.3173 18.2902 75.1972 18.3088C74.8703 18.3016 74.5463 18.3718 74.2516 18.5135C73.9786 18.6497 73.7237 18.8196 73.493 19.0192L73.0925 18.5398C73.3738 18.284 73.6928 18.0731 74.0382 17.9142C74.4287 17.7401 74.853 17.6548 75.2805 17.6643C75.5236 17.6589 75.7658 17.6949 75.9967 17.771C76.1808 17.8327 76.3473 17.938 76.4819 18.0779C76.6119 18.2195 76.7065 18.3898 76.7582 18.5748C76.82 18.79 76.8501 19.0131 76.8473 19.2369V21.3168C76.8456 21.5515 76.8558 21.7862 76.878 22.0198C76.8921 22.1759 76.9275 22.3294 76.9833 22.4758H76.1969C76.1648 22.375 76.1399 22.2741 76.118 22.1835C76.0963 22.0664 76.086 21.9475 76.0873 21.8284C75.5995 22.3022 74.9447 22.5647 74.2647 22.5592L74.2662 22.5518ZM74.4869 21.9526C74.7891 21.9572 75.0886 21.8948 75.3638 21.7699C75.6347 21.6446 75.8819 21.4735 76.0946 21.2642V19.9487C75.7135 20.0071 75.3363 20.0881 74.9648 20.1914C74.7071 20.2591 74.4583 20.3572 74.2238 20.4837C74.0625 20.5696 73.9242 20.6929 73.8204 20.8432C73.7415 20.9667 73.6999 21.1103 73.7005 21.2569C73.694 21.3535 73.7095 21.4504 73.7457 21.5402C73.7819 21.6301 73.8379 21.7106 73.9095 21.7757C74.0763 21.9042 74.2841 21.9676 74.4942 21.9541" fill="#32270E"/>
<path d="M78.9827 15.8738H78.2154V22.4817H78.9827V15.8738Z" fill="#32270E"/>
<path d="M82.0448 22.5445C81.6787 22.5839 81.3117 22.4791 81.0217 22.2522C80.8082 22.0001 80.7031 21.6738 80.7293 21.3446V18.4024H79.9094V17.771H80.7293V16.0931H81.5011V17.771H82.7215V18.4024H81.5011V21.1648C81.4847 21.363 81.5363 21.5609 81.6472 21.726C81.7245 21.799 81.817 21.8539 81.9182 21.8865C82.0194 21.9191 82.1265 21.9287 82.2319 21.9146C82.3164 21.9143 82.4009 21.9084 82.4847 21.897C82.5612 21.8882 82.637 21.8735 82.7113 21.8532V22.4861C82.6484 22.4978 82.549 22.5095 82.4189 22.5212C82.2889 22.5328 82.1617 22.5387 82.0462 22.5387" fill="#32270E"/>
<path d="M83.7592 22.4846V17.771H84.5266V18.6479H84.5441C84.7227 18.3667 84.9626 18.1294 85.2457 17.9537C85.5865 17.7537 85.9778 17.6563 86.3726 17.673H86.469L86.4164 18.3878C86.3789 18.3802 86.3406 18.3778 86.3024 18.3805H86.1928C85.8452 18.3725 85.5031 18.4687 85.2106 18.6567C84.9187 18.8546 84.6847 19.1265 84.5324 19.4445V22.4846H83.7592Z" fill="#32270E"/>
<path d="M87.3635 16.0097H88.1659V16.7595H87.3635V16.0097ZM87.3811 17.7637H88.1469V22.4758H87.3811V17.7637Z" fill="#32270E"/>
<path d="M91.3873 22.5825C91.1163 22.583 90.848 22.5293 90.598 22.4247C90.3442 22.3201 90.1159 22.1621 89.9286 21.9614C89.7249 21.7385 89.5669 21.4778 89.4638 21.194C89.342 20.8502 89.2831 20.4873 89.2899 20.1227C89.2809 19.7462 89.3444 19.3716 89.477 19.0192C89.5869 18.7326 89.7563 18.4726 89.9739 18.2562C90.1737 18.0637 90.4111 17.9145 90.6711 17.8177C90.9204 17.7227 91.1848 17.6732 91.4516 17.6716C91.6879 17.6667 91.9233 17.7028 92.1473 17.7783C92.3356 17.8456 92.511 17.9445 92.6662 18.0706C92.8142 18.1904 92.9412 18.3342 93.0418 18.4959C93.1415 18.6552 93.228 18.8224 93.3005 18.9958L92.6472 19.2662C92.5537 18.9986 92.3943 18.7588 92.1839 18.569C91.9713 18.4018 91.7057 18.3167 91.4355 18.3293C91.264 18.3284 91.0939 18.3602 90.9342 18.4228C90.7663 18.4899 90.6162 18.5949 90.4957 18.7298C90.3535 18.8916 90.2464 19.0812 90.1815 19.2866C90.0962 19.5589 90.0562 19.8433 90.0631 20.1285C90.032 20.6064 90.1645 21.0806 90.4387 21.4732C90.5531 21.6229 90.7014 21.7434 90.8713 21.8247C91.0413 21.906 91.2282 21.9458 91.4165 21.9409C91.6806 21.9519 91.9411 21.8771 92.159 21.7275C92.3914 21.5317 92.5704 21.2803 92.6793 20.9967L93.3166 21.2452C93.2306 21.4362 93.1253 21.6179 93.0024 21.7874C92.8873 21.948 92.7489 22.0904 92.5916 22.2098C92.4332 22.3307 92.2559 22.4245 92.0669 22.4875C91.8464 22.5582 91.6159 22.5922 91.3844 22.5884" fill="#32270E"/>
<path d="M95.8568 22.5694C95.4645 22.5763 95.0753 22.4991 94.7153 22.3428C94.4124 22.2148 94.1436 22.0175 93.9305 21.767L94.3923 21.3051C94.574 21.4961 94.7877 21.6539 95.0237 21.7714C95.286 21.8978 95.5745 21.9605 95.8656 21.9541C96.1587 21.9723 96.4511 21.9075 96.709 21.767C96.8028 21.7093 96.8794 21.6274 96.9309 21.53C96.9823 21.4325 97.0066 21.3231 97.0013 21.213C97.0062 21.1056 96.9804 20.999 96.9268 20.9058C96.8732 20.8126 96.7941 20.7366 96.6987 20.6868C96.4109 20.5433 96.1052 20.439 95.7896 20.377C95.5402 20.3156 95.3102 20.2493 95.0997 20.1782C94.9107 20.1168 94.7319 20.0277 94.5692 19.9137C94.4269 19.8126 94.3098 19.68 94.2272 19.5263C94.139 19.3491 94.0963 19.1527 94.1029 18.9549C94.1019 18.782 94.1399 18.6112 94.214 18.455C94.2903 18.2969 94.4012 18.158 94.5385 18.0487C94.6939 17.924 94.8714 17.8298 95.0617 17.771C95.2858 17.7005 95.5197 17.6664 95.7545 17.6701C96.1125 17.6599 96.4688 17.7215 96.8025 17.8514C97.0809 17.9703 97.3354 18.1386 97.5537 18.3483L97.1533 18.8584C96.9733 18.6872 96.7651 18.5483 96.5379 18.4477C96.3021 18.3424 96.0464 18.2891 95.7881 18.2913C95.5292 18.2679 95.2704 18.3367 95.0574 18.4857C94.9915 18.5387 94.938 18.6053 94.9004 18.681C94.8628 18.7567 94.842 18.8397 94.8396 18.9242C94.8345 19.0232 94.8577 19.1216 94.9067 19.2078C94.9556 19.294 95.0282 19.3645 95.1158 19.4109C95.3817 19.5412 95.6638 19.6351 95.9548 19.69C96.2208 19.7573 96.4649 19.826 96.6856 19.8976C96.8869 19.9593 97.078 20.0504 97.2527 20.168C97.4063 20.2708 97.5323 20.4098 97.6195 20.5728C97.7113 20.762 97.7554 20.9707 97.7482 21.1809C97.7515 21.3898 97.7011 21.5962 97.602 21.7801C97.5077 21.956 97.3723 22.1064 97.2074 22.2186C97.0244 22.3401 96.8216 22.4287 96.6081 22.4802C96.3637 22.5402 96.1129 22.5696 95.8612 22.5679" fill="#32270E"/>
<path d="M152.017 29.1086V26.808H151.202V26.5245H153.151V26.808H152.328V29.1086H152.017Z" fill="#32270E"/>
<path d="M153.578 29.1086V26.5245H153.98L154.793 28.7168L155.591 26.5245H156V29.1086H155.697V27.017C155.678 27.0857 155.654 27.1632 155.626 27.2406C155.598 27.3181 155.569 27.4058 155.538 27.492L154.921 29.1086H154.645L154.028 27.492C154.011 27.4496 153.996 27.4102 153.983 27.3736C153.97 27.3371 153.958 27.2991 153.945 27.2611C153.932 27.2231 153.919 27.1851 153.907 27.1442L153.866 27.0053V29.1071L153.578 29.1086Z" fill="#32270E"/>
<path d="M61.9055 40.6858V26.5259H66.2493C67.2649 26.5175 68.2773 26.6398 69.2617 26.8899C70.1396 27.109 70.9591 27.517 71.6631 28.0854C72.3602 28.6696 72.9049 29.4145 73.2504 30.2559C73.6604 31.2974 73.8558 32.411 73.8248 33.5299C73.8574 34.6783 73.6585 35.8216 73.2401 36.8915C72.8921 37.7481 72.3402 38.5067 71.6324 39.1015C70.9269 39.6715 70.1084 40.085 69.231 40.3146C68.2587 40.5715 67.2564 40.6973 66.2508 40.6888L61.9055 40.6858ZM64.988 38.1631H66.4496C67.1146 38.1779 67.7777 38.0866 68.4139 37.8927C68.9183 37.7366 69.3742 37.4538 69.7381 37.0713C70.0979 36.665 70.3514 36.1759 70.4762 35.6477C70.6408 34.9675 70.7179 34.2691 70.7057 33.5693C70.8024 32.3693 70.4503 31.1762 69.7177 30.2208C69.2731 29.8188 68.7492 29.5143 68.1798 29.327C67.6104 29.1397 67.008 29.0738 66.4116 29.1334H64.9894L64.988 38.1631Z" fill="#32270E"/>
<path d="M74.5556 35.5937C74.528 34.7299 74.7006 33.8715 75.0598 33.0856C75.36 32.4546 75.7934 31.8961 76.3299 31.4486C76.821 31.0446 77.3859 30.7398 77.9932 30.5512C78.5372 30.3763 79.1042 30.2836 79.6755 30.2764C80.2238 30.2799 80.7689 30.3601 81.295 30.5146C81.862 30.6785 82.3813 30.9763 82.8092 31.3828C83.3049 31.8708 83.6858 32.4629 83.9244 33.1163C84.2462 34.0273 84.3949 34.9905 84.3629 35.9561V36.418H77.6103C77.5968 36.729 77.6496 37.0392 77.7653 37.3282C77.881 37.6172 78.0569 37.8782 78.2813 38.0939C78.5058 38.3096 78.7735 38.475 79.0668 38.5792C79.3601 38.6834 79.6723 38.7239 79.9825 38.6981C80.5723 38.7024 81.156 38.5777 81.6925 38.3327C82.1696 38.1224 82.6129 37.8427 83.008 37.5025L84.1948 39.3295C82.9633 40.3883 81.3807 40.9487 79.7574 40.9007C79.1011 40.9022 78.4482 40.8077 77.8193 40.6201C77.2078 40.4412 76.6413 40.1343 76.1575 39.7197C75.6472 39.2722 75.2471 38.713 74.9882 38.0857C74.6746 37.2959 74.5254 36.4504 74.5497 35.601L74.5556 35.5937ZM77.641 34.61H81.6019C81.4528 33.1962 80.8019 32.4892 79.6492 32.4892C79.1766 32.4867 78.7209 32.6644 78.3747 32.9862C77.953 33.4276 77.6951 34.0002 77.6439 34.6085" fill="#32270E"/>
<path d="M84.8306 39.331L86.0539 37.6311C86.5412 38.0481 87.1017 38.3707 87.707 38.5826C88.3152 38.8087 88.9583 38.9264 89.6071 38.9305C90.0113 38.9469 90.4133 38.862 90.7763 38.6835C90.9133 38.6177 91.0284 38.5137 91.1078 38.384C91.1871 38.2544 91.2273 38.1046 91.2236 37.9527C91.2312 37.7961 91.1939 37.6406 91.1163 37.5044C91.0386 37.3683 90.9237 37.2571 90.7851 37.1839C90.3137 36.9649 89.8113 36.82 89.2957 36.7542C88.8085 36.6684 88.3267 36.571 87.8502 36.4618C87.3985 36.3597 86.9652 36.1887 86.5655 35.9547C86.1916 35.7339 85.8748 35.4285 85.6403 35.0631C85.3855 34.6307 85.2616 34.1336 85.2837 33.6322C85.2729 33.1441 85.3728 32.6599 85.576 32.2159C85.7707 31.8072 86.0562 31.4482 86.4106 31.1665C86.7852 30.8732 87.2109 30.6517 87.6661 30.5132C88.1795 30.357 88.7138 30.2806 89.2504 30.2866C90.134 30.26 91.0148 30.3983 91.8477 30.6944C92.5277 30.9635 93.1595 31.3411 93.7185 31.8125L92.5127 33.5781C92.0359 33.2545 91.5246 32.9849 90.9883 32.7742C90.5225 32.5911 90.0271 32.495 89.5267 32.4907C89.1703 32.469 88.8151 32.5502 88.5036 32.7245C88.3899 32.7965 88.2976 32.8977 88.2363 33.0174C88.1749 33.1372 88.1469 33.2712 88.1549 33.4055C88.163 33.5399 88.2069 33.6696 88.2821 33.7811C88.3573 33.8927 88.461 33.9821 88.5825 34.04C89.0218 34.2376 89.4876 34.37 89.9651 34.4331C90.4631 34.5189 90.9605 34.6163 91.4574 34.7255C91.9214 34.8255 92.3681 34.9934 92.7831 35.2239C93.162 35.4379 93.485 35.7384 93.7258 36.1008C93.9827 36.5155 94.1095 36.9976 94.0898 37.485C94.1047 38.0297 93.9767 38.5689 93.7185 39.0489C93.4774 39.4781 93.1365 39.8431 92.7246 40.1129C92.286 40.3945 91.8011 40.5964 91.2923 40.7092C90.7387 40.837 90.1723 40.9008 89.6041 40.8992C88.6385 40.9251 87.6764 40.771 86.7672 40.4447C86.0654 40.1815 85.4116 39.8047 84.832 39.3295" fill="#32270E"/>
<path d="M95.3102 26.6268H98.4307V29.0925H95.3102V26.6268ZM95.3292 30.4854H98.4117V40.6858H95.3307L95.3292 30.4854Z" fill="#32270E"/>
<path d="M99.0051 42.2176C98.9997 41.9832 99.0428 41.7503 99.1319 41.5335C99.2209 41.3166 99.3539 41.1206 99.5225 40.9577C99.8721 40.6145 100.287 40.3451 100.743 40.1655C100.526 40.0448 100.346 39.8672 100.223 39.652C100.099 39.4367 100.036 39.1918 100.041 38.9436C100.044 38.5141 100.199 38.0994 100.48 37.7744C100.779 37.4119 101.136 37.1018 101.537 36.8565C101.011 36.5561 100.576 36.1186 100.28 35.5907C99.9981 35.073 99.8537 34.4919 99.8601 33.9026C99.8568 33.4122 99.9601 32.927 100.163 32.4805C100.365 32.0363 100.664 31.6435 101.04 31.3316C101.465 30.9866 101.952 30.7253 102.475 30.5614C103.767 30.1808 105.142 30.1854 106.431 30.5745C106.958 30.7451 107.444 31.0233 107.858 31.3916C108.231 31.0801 108.654 30.8331 109.109 30.6608C109.547 30.4803 110.011 30.3698 110.483 30.3334V32.6412C110.303 32.6412 110.063 32.6539 109.764 32.6792C109.422 32.7131 109.084 32.7796 108.755 32.878C108.891 33.2017 108.958 33.5502 108.951 33.9011C108.96 34.4036 108.86 34.9021 108.659 35.3627C108.456 35.8088 108.156 36.2041 107.782 36.5203C107.365 36.8683 106.884 37.1306 106.366 37.292C105.739 37.4865 105.086 37.5803 104.431 37.5697C104.152 37.5706 103.873 37.5549 103.596 37.523C103.334 37.4923 103.09 37.4513 102.865 37.4016C102.778 37.475 102.698 37.5567 102.627 37.6457C102.569 37.7211 102.538 37.8138 102.539 37.9088C102.535 37.9949 102.562 38.0797 102.616 38.1471C102.67 38.2144 102.747 38.2597 102.832 38.2742C103.108 38.3416 103.391 38.3812 103.675 38.3926L105.201 38.4935C106.503 38.4547 107.796 38.7205 108.978 39.2696C109.348 39.4827 109.652 39.7948 109.855 40.171C110.058 40.5472 110.152 40.9724 110.126 41.3991C110.137 41.8939 109.982 42.3782 109.688 42.7759C109.366 43.1932 108.949 43.5278 108.472 43.7523C107.884 44.0311 107.26 44.2245 106.617 44.3267C105.842 44.4588 105.056 44.5229 104.27 44.5182C103.434 44.5287 102.598 44.4775 101.769 44.3647C101.209 44.2945 100.663 44.1418 100.148 43.9116C99.7924 43.7561 99.4882 43.5026 99.2711 43.1808C99.0935 42.8917 99.0013 42.5569 99.0051 42.2176ZM101.873 41.6578C101.869 41.871 101.931 42.0803 102.05 42.2572C102.168 42.4342 102.339 42.5704 102.538 42.6473C103.89 43.0585 105.332 43.0717 106.692 42.6853C107.185 42.4982 107.431 42.2395 107.431 41.9092C107.434 41.7672 107.404 41.6265 107.342 41.4985C107.257 41.3576 107.125 41.2507 106.969 41.1959C106.706 41.093 106.429 41.0257 106.148 40.9957C105.79 40.945 105.313 40.9046 104.717 40.8744L103.109 40.7984L102.438 40.7429C102.273 40.8333 102.133 40.9651 102.033 41.1254C101.933 41.2857 101.877 41.4691 101.868 41.6578H101.873ZM102.728 34.0181C102.71 34.4993 102.871 34.9701 103.178 35.3408C103.342 35.5207 103.544 35.6615 103.769 35.7526C103.994 35.8437 104.238 35.8828 104.48 35.867C104.723 35.8833 104.966 35.8444 105.191 35.7533C105.416 35.6622 105.618 35.5211 105.781 35.3408C106.082 34.9672 106.238 34.4974 106.22 34.0181C106.238 33.552 106.081 33.096 105.781 32.7392C105.424 32.4132 104.958 32.2324 104.474 32.2324C103.991 32.2324 103.525 32.4132 103.168 32.7392C102.868 33.0962 102.71 33.5521 102.728 34.0181Z" fill="#32270E"/>
<path d="M111.385 40.6858V30.4854H114.467V32.0785C114.635 31.8604 114.819 31.6557 115.018 31.4661C115.251 31.2428 115.509 31.0466 115.786 30.8815C116.095 30.6965 116.426 30.5492 116.771 30.443C117.167 30.3241 117.578 30.2665 117.991 30.272C118.397 30.2684 118.8 30.3265 119.188 30.4445C119.538 30.5502 119.86 30.7302 120.134 30.9721C120.408 31.2255 120.618 31.5393 120.749 31.8885C120.906 32.3191 120.981 32.7751 120.97 33.2332V40.6858H117.887V34.2066C117.914 33.8361 117.817 33.4673 117.613 33.1572C117.496 33.0294 117.352 32.9307 117.19 32.869C117.029 32.8073 116.855 32.7844 116.683 32.802C116.28 32.8019 115.883 32.9023 115.528 33.0943C115.149 33.2976 114.794 33.5427 114.469 33.8251V40.6946L111.385 40.6858Z" fill="#32270E"/>
<path d="M122.027 40.6858L126.558 33.2039L122.429 26.5259H125.979L128.51 30.7762L130.902 26.5259H134.117L130.082 33.2229L134.669 40.6858H131.213L128.205 35.7354L125.301 40.6858H122.027Z" fill="#32270E"/>
<path d="M135.297 40.6858V26.5259H139.389L142.547 36.9442H142.603L145.539 26.5274H149.766V40.6873H146.755V31.0276H146.697C146.551 31.621 146.41 32.157 146.275 32.6354C146.139 33.1138 145.997 33.62 145.849 34.154L143.774 40.6858H141.064L138.785 33.4334L138.563 32.7289C138.487 32.4863 138.417 32.2174 138.351 31.925C138.285 31.6327 138.218 31.2805 138.145 30.8683H138.107V40.6858H135.297Z" fill="#32270E"/>
</svg>
