<svg width="24" height="25" viewBox="0 0 24 25" fill="none" xmlns="http://www.w3.org/2000/svg">
<path d="M22.9914 4.37403C22.9915 4.1974 22.9448 4.02389 22.8561 3.87118C22.7673 3.71846 22.6397 3.592 22.4862 3.50467C22.3326 3.41733 22.1587 3.37224 21.9821 3.374C21.8054 3.37575 21.6324 3.42429 21.4807 3.51465C20.8954 3.86304 20.2652 4.12984 19.6077 4.30765C18.6686 3.50189 17.471 3.06096 16.2337 3.06546C14.8762 3.06703 13.5726 3.59606 12.5979 4.54085C11.6232 5.48563 11.0539 6.77222 11.01 8.12894C8.33402 7.70221 5.90868 6.30547 4.19649 4.20508C4.09333 4.07992 3.96158 3.9814 3.81235 3.91783C3.66313 3.85426 3.5008 3.82751 3.33907 3.83983C3.17743 3.85314 3.02147 3.90563 2.88467 3.99274C2.74786 4.07986 2.63434 4.19899 2.55391 4.33983C2.14144 5.05965 1.90454 5.86659 1.86246 6.69514C1.82038 7.52369 1.9743 8.35048 2.31172 9.10838L2.30977 9.11033C2.15812 9.20374 2.03296 9.33449 1.94628 9.49008C1.85959 9.64567 1.81427 9.8209 1.81465 9.99901C1.81282 10.1459 1.82163 10.2928 1.84102 10.4385C1.94316 11.6967 2.50081 12.8745 3.40938 13.751C3.34775 13.8684 3.31013 13.9969 3.29873 14.129C3.28732 14.2612 3.30237 14.3942 3.34297 14.5205C3.73909 15.7546 4.58147 16.7966 5.70528 17.4424C4.56352 17.8839 3.3307 18.0378 2.11543 17.8906C1.89051 17.8624 1.66266 17.9114 1.46928 18.0297C1.2759 18.148 1.12846 18.3285 1.05115 18.5416C0.973837 18.7547 0.971244 18.9878 1.04379 19.2025C1.11634 19.4173 1.25973 19.601 1.45043 19.7236C3.54053 21.0698 5.97411 21.7855 8.4602 21.7852C11.2795 21.8169 14.0302 20.916 16.2844 19.2226C18.5387 17.5292 20.1702 15.1383 20.925 12.4218C21.2781 11.2385 21.4583 10.0103 21.4602 8.77539C21.4602 8.70996 21.4602 8.64258 21.4592 8.5752C21.9813 8.01213 22.3858 7.35051 22.6489 6.6291C22.912 5.9077 23.0284 5.14103 22.9914 4.37403ZM19.6848 7.58594C19.5196 7.78129 19.436 8.03274 19.4514 8.28809C19.4611 8.45309 19.4602 8.61909 19.4602 8.77539C19.4581 9.81893 19.3052 10.8567 19.0061 11.8565C18.3896 14.1678 17.0152 16.2055 15.1031 17.643C13.1911 19.0806 10.8519 19.8349 8.4602 19.7852C7.60108 19.7854 6.74492 19.6845 5.90942 19.4844C6.97483 19.141 7.97101 18.6117 8.8518 17.9209C9.01403 17.7932 9.13275 17.6184 9.19169 17.4205C9.25063 17.2226 9.24688 17.0113 9.18098 16.8157C9.11507 16.62 8.99023 16.4495 8.82358 16.3276C8.65694 16.2057 8.45665 16.1383 8.2502 16.1348C7.41903 16.1219 6.62533 15.7868 6.03633 15.2002C6.18575 15.1719 6.33419 15.1367 6.48165 15.0947C6.69766 15.0332 6.8867 14.9009 7.01831 14.7189C7.14993 14.5369 7.21647 14.3159 7.20723 14.0915C7.19798 13.8671 7.11348 13.6523 6.96734 13.4818C6.82119 13.3113 6.62191 13.1949 6.40157 13.1514C5.91911 13.0561 5.46512 12.8508 5.07489 12.5516C4.68466 12.2523 4.3687 11.867 4.15157 11.4258C4.3323 11.4505 4.51418 11.4658 4.69649 11.4717C4.91308 11.475 5.12509 11.4093 5.30187 11.2841C5.47865 11.1589 5.61104 10.9808 5.67989 10.7754C5.74587 10.5682 5.74248 10.3451 5.67022 10.1399C5.59797 9.93479 5.46079 9.75881 5.2795 9.63867C4.83965 9.34564 4.47935 8.9481 4.23086 8.48163C3.98237 8.01517 3.85346 7.49435 3.85567 6.96583C3.85567 6.89943 3.85762 6.83302 3.86153 6.76759C6.10279 8.85785 9.00985 10.09 12.0705 10.2471C12.225 10.2532 12.3789 10.2241 12.5205 10.162C12.6621 10.0999 12.7877 10.0064 12.8879 9.88868C12.9871 9.76979 13.0573 9.62949 13.0931 9.47884C13.1288 9.32819 13.1291 9.1713 13.0939 9.02052C13.0367 8.78189 13.0076 8.5374 13.007 8.292C13.0079 7.43654 13.3482 6.61637 13.9531 6.01147C14.558 5.40657 15.3781 5.06634 16.2336 5.06543C16.6737 5.06426 17.1093 5.15433 17.5129 5.32998C17.9165 5.50563 18.2792 5.76303 18.5783 6.08594C18.6937 6.21003 18.8388 6.30254 19 6.35468C19.1612 6.40682 19.333 6.41686 19.4992 6.38383C19.91 6.30389 20.3149 6.19622 20.7111 6.06157C20.4409 6.61455 20.0955 7.12752 19.6848 7.58594Z" fill="#32270E"/>
</svg>
