<svg width="90" height="25" viewBox="0 0 90 25" fill="none" xmlns="http://www.w3.org/2000/svg">
<path fill-rule="evenodd" clip-rule="evenodd" d="M13.9184 22.6013C19.5255 22.6013 24.0709 18.0559 24.0709 12.4488C24.0709 6.84177 19.5255 2.29639 13.9184 2.29639C8.31137 2.29639 3.76599 6.84177 3.76599 12.4488C3.76599 18.0559 8.31137 22.6013 13.9184 22.6013Z" fill="#FF5036"/>
<path fill-rule="evenodd" clip-rule="evenodd" d="M13.9143 11.7574C13.9143 11.7574 13.7836 11.5414 13.4981 11.1708C13.2127 10.8 12.7726 10.2746 12.1537 9.65571C11.4669 8.96896 10.5672 8.6251 9.66718 8.62403C8.7671 8.62304 7.8667 8.96477 7.17864 9.64947C6.50751 10.3172 6.16882 11.1943 6.15764 12.0791C6.14638 12.9639 6.46254 13.8565 7.10112 14.5554C8.93086 16.5578 11.4225 17.559 13.9143 17.559C16.4061 17.559 18.8978 16.5578 20.7274 14.5554H20.7275C21.3661 13.8565 21.6822 12.9639 21.671 12.0791C21.6598 11.1943 21.3211 10.3173 20.65 9.64947C19.9619 8.96477 19.0615 8.62304 18.1614 8.62403C17.2614 8.6251 16.3616 8.96896 15.675 9.65571C15.056 10.2746 14.6158 10.8 14.3304 11.1708C14.045 11.5414 13.9143 11.7574 13.9143 11.7574Z" fill="white"/>
<path fill-rule="evenodd" clip-rule="evenodd" d="M8.22278 12.1463C8.22278 12.9128 8.84417 13.5343 9.61074 13.5343C10.3773 13.5343 10.9988 12.9128 10.9988 12.1463C10.9988 11.3797 10.3773 10.7583 9.61074 10.7583C8.84417 10.7583 8.22278 11.3797 8.22278 12.1463Z" fill="#32270E"/>
<path fill-rule="evenodd" clip-rule="evenodd" d="M13.9143 11.7573C12.8411 12.8305 12.8411 14.5705 13.9143 15.6437C14.9875 14.5705 14.9875 12.8305 13.9143 11.7573Z" fill="#32270E"/>
<path fill-rule="evenodd" clip-rule="evenodd" d="M19.6111 12.1463C19.6111 12.9128 18.9897 13.5343 18.2231 13.5343C17.4566 13.5343 16.8351 12.9128 16.8351 12.1463C16.8351 11.3797 17.4566 10.7583 18.2231 10.7583C18.9897 10.7583 19.6111 11.3797 19.6111 12.1463Z" fill="#32270E"/>
<path fill-rule="evenodd" clip-rule="evenodd" d="M61.2699 9.21924H56.1049C56.0139 9.21924 55.9404 9.29289 55.9404 9.38365V10.2764C55.9404 10.3672 56.0139 10.4408 56.1049 10.4408H59.3198L55.4872 16.6024C55.4192 16.7119 55.4979 16.8537 55.6268 16.8537H61.2482C61.3391 16.8537 61.4126 16.7801 61.4126 16.6893V15.7922C61.4126 15.7014 61.3391 15.6278 61.2482 15.6278H57.6067L61.4098 9.47005C61.4774 9.36047 61.3986 9.21924 61.2699 9.21924Z" fill="#FF5036"/>
<path fill-rule="evenodd" clip-rule="evenodd" d="M38.072 11.9986C38.1543 11.0523 39.183 10.3116 40.3624 10.3116C41.4478 10.3116 42.5084 10.7855 42.6759 12.0187C42.6893 12.1169 42.6115 12.2043 42.5124 12.2043H41.4851C41.4129 12.2043 41.3467 12.158 41.3279 12.0884C41.2208 11.691 40.819 11.5185 40.4172 11.5185C40.0607 11.5185 39.6492 11.6558 39.5121 11.8753C39.4024 12.0534 39.3887 12.2593 39.4573 12.4511C39.5396 12.6982 39.896 12.8489 40.239 12.9449L41.2264 13.1919C42.6117 13.5347 42.8997 14.4124 42.8997 15.0571C42.8997 16.2913 41.8162 16.9909 40.3487 16.9909C39.2101 16.9909 38.0339 16.3039 37.9049 15.0731C37.8948 14.9766 37.9721 14.8926 38.0692 14.8926H39.0602C39.1373 14.8926 39.2019 14.9467 39.2207 15.0215C39.34 15.4983 39.7775 15.8114 40.4584 15.8114C41.103 15.8114 41.5968 15.5232 41.5968 15.0433C41.5968 14.6319 41.1716 14.3987 40.7053 14.2891L39.8412 14.0832C38.4835 13.7129 37.9898 13.0273 38.072 11.9986Z" fill="#FF5036"/>
<path fill-rule="evenodd" clip-rule="evenodd" d="M48.7513 13.1232C48.6142 12.1219 47.8873 11.546 46.9274 11.546C45.9398 11.546 45.1718 12.1358 45.0346 13.1232H48.7513ZM49.9681 14.1518H45.0346C45.1718 15.1392 45.9673 15.7565 46.9959 15.7565C47.66 15.7565 48.3121 15.4711 48.6645 14.9557C48.7099 14.8892 48.7953 14.8643 48.8687 14.8974C49.1417 15.0205 49.4438 15.1493 49.7258 15.2727C49.8157 15.3121 49.852 15.4215 49.8023 15.5064C49.2102 16.5196 48.0749 16.9908 46.9274 16.9908C45.1032 16.9908 43.6357 15.6606 43.6357 13.6308C43.6357 11.6009 45.1032 10.3116 46.9274 10.3116C48.7513 10.3116 50.1366 11.6009 50.1366 13.6308C50.1366 13.7323 50.1366 13.8711 50.1324 13.9928C50.1294 14.0815 50.0568 14.1518 49.9681 14.1518Z" fill="#FF5036"/>
<path fill-rule="evenodd" clip-rule="evenodd" d="M67.0666 13.6289C67.0666 12.369 66.1291 11.5634 64.9864 11.5634C63.8586 11.5634 62.921 12.369 62.921 13.6289C62.921 14.9179 63.8586 15.7528 64.9864 15.7528C66.1291 15.7528 67.0666 14.9179 67.0666 13.6289ZM61.6542 13.6307C61.6542 11.6009 63.1766 10.3116 64.9869 10.3116C66.8111 10.3116 68.3471 11.6009 68.3471 13.6307C68.3471 15.6606 66.8111 16.9908 64.9869 16.9908C63.1766 16.9908 61.6542 15.6606 61.6542 13.6307Z" fill="#FF5036"/>
<path fill-rule="evenodd" clip-rule="evenodd" d="M74.4163 13.6289C74.4163 12.369 73.4788 11.5634 72.3362 11.5634C71.2083 11.5634 70.2707 12.369 70.2707 13.6289C70.2707 14.9179 71.2083 15.7528 72.3362 15.7528C73.4788 15.7528 74.4163 14.9179 74.4163 13.6289ZM69.0039 13.6307C69.0039 11.6009 70.5263 10.3116 72.3367 10.3116C74.1608 10.3116 75.6968 11.6009 75.6968 13.6307C75.6968 15.6606 74.1608 16.9908 72.3367 16.9908C70.5263 16.9908 69.0039 15.6606 69.0039 13.6307Z" fill="#FF5036"/>
<path fill-rule="evenodd" clip-rule="evenodd" d="M83.6418 10.3118C82.7919 10.3229 82.0317 10.7032 81.5126 11.2992C80.9936 10.7032 80.2333 10.3229 79.3835 10.3118C77.7826 10.2911 76.4724 11.6371 76.4724 13.2381V16.6893C76.4724 16.7801 76.5461 16.8537 76.6368 16.8537H77.7206C77.8114 16.8537 77.885 16.7801 77.885 16.6893V13.2232C77.885 12.4045 78.555 11.7092 79.3735 11.7245C80.1673 11.7393 80.8063 12.3875 80.8063 13.1849V16.6893C80.8063 16.7801 80.8799 16.8537 80.9707 16.8537H82.0545C82.1454 16.8537 82.2189 16.7801 82.2189 16.6893V13.2232C82.2189 12.4045 82.8889 11.7092 83.7075 11.7245C84.5013 11.7393 85.1403 12.3875 85.1403 13.1849V16.6893C85.1403 16.7801 85.2139 16.8537 85.3047 16.8537H86.3884C86.4793 16.8537 86.5528 16.7801 86.5528 16.6893V13.2381C86.5528 11.6371 85.2427 10.2911 83.6418 10.3118Z" fill="#FF5036"/>
<path fill-rule="evenodd" clip-rule="evenodd" d="M54.9398 10.315C54.1357 10.2784 53.2412 10.5259 52.7165 11.4984V10.6133C52.7165 10.5225 52.6429 10.4488 52.5521 10.4488H51.4683C51.3774 10.4488 51.3039 10.5225 51.3039 10.6133V16.6893C51.3039 16.7801 51.3774 16.8537 51.4683 16.8537H52.5521C52.6429 16.8537 52.7165 16.7801 52.7165 16.6893V14.3385C52.7165 12.3729 53.79 11.5679 54.9397 11.5213C55.0275 11.5178 55.0967 11.4455 55.0967 11.3576V10.4797C55.0967 10.3918 55.0276 10.319 54.9398 10.315Z" fill="#FF5036"/>
<path fill-rule="evenodd" clip-rule="evenodd" d="M35.6457 9.21924H36.7421C36.8328 9.21924 36.9065 9.29289 36.9065 9.38365V13.8317C36.9065 15.6607 35.6593 16.9908 33.6997 16.9908C31.74 16.9908 30.4929 15.6607 30.4929 13.8317V9.38365C30.4929 9.29289 30.5666 9.21924 30.6573 9.21924H31.7537C31.8445 9.21924 31.9181 9.29289 31.9181 9.38365V13.827C31.9181 14.8074 32.6982 15.6289 33.6785 15.6369C34.8682 15.6465 35.4813 14.8484 35.4813 13.6536V9.38365C35.4813 9.29289 35.5548 9.21924 35.6457 9.21924Z" fill="#FF5036"/>
</svg>
