<svg width="176" height="49" viewBox="0 0 176 49" fill="none" xmlns="http://www.w3.org/2000/svg">
<path fill-rule="evenodd" clip-rule="evenodd" d="M26.456 44.1533C37.5018 44.1533 46.4561 35.1991 46.4561 24.1532C46.4561 13.1076 37.5018 4.15332 26.456 4.15332C15.4103 4.15332 6.45605 13.1076 6.45605 24.1532C6.45605 35.1991 15.4103 44.1533 26.456 44.1533Z" fill="#FF5036"/>
<path fill-rule="evenodd" clip-rule="evenodd" d="M26.4479 22.7903C26.4479 22.7903 26.1904 22.3649 25.6281 21.6347C25.0659 20.9043 24.1988 19.8693 22.9795 18.6501C21.6267 17.2972 19.8542 16.6198 18.0812 16.6177C16.3081 16.6157 14.5344 17.2889 13.1789 18.6378C11.8568 19.9532 11.1896 21.681 11.1676 23.4242C11.1454 25.1672 11.7682 26.9255 13.0262 28.3024C16.6307 32.247 21.5392 34.2193 26.4479 34.2193C31.3567 34.2193 36.2652 32.247 39.8696 28.3024H39.8698C41.1277 26.9255 41.7506 25.1672 41.7284 23.4242C41.7064 21.681 41.0391 19.9534 39.717 18.6378C38.3616 17.2889 36.5878 16.6157 34.8147 16.6177C33.0417 16.6198 31.2691 17.2972 29.9164 18.6501C28.6971 19.8693 27.8299 20.9043 27.2676 21.6347C26.7054 22.3649 26.4479 22.7903 26.4479 22.7903Z" fill="white"/>
<path fill-rule="evenodd" clip-rule="evenodd" d="M15.2358 23.5565C15.2358 25.0666 16.46 26.2909 17.9701 26.2909C19.4802 26.2909 20.7045 25.0666 20.7045 23.5565C20.7045 22.0464 19.4802 20.8223 17.9701 20.8223C16.46 20.8223 15.2358 22.0464 15.2358 23.5565Z" fill="#32270E"/>
<path fill-rule="evenodd" clip-rule="evenodd" d="M26.4479 22.7904C24.3337 24.9045 24.3337 28.3322 26.4479 30.4464C28.5622 28.3322 28.5622 24.9045 26.4479 22.7904Z" fill="#32270E"/>
<path fill-rule="evenodd" clip-rule="evenodd" d="M37.6705 23.5565C37.6705 25.0666 36.4464 26.2909 34.9363 26.2909C33.4261 26.2909 32.2018 25.0666 32.2018 23.5565C32.2018 22.0464 33.4261 20.8223 34.9363 20.8223C36.4464 20.8223 37.6705 22.0464 37.6705 23.5565Z" fill="#32270E"/>
<path fill-rule="evenodd" clip-rule="evenodd" d="M119.737 17.791H109.562C109.383 17.791 109.238 17.9361 109.238 18.1149V19.8736C109.238 20.0526 109.383 20.1975 109.562 20.1975H115.895L108.345 32.3356C108.211 32.5513 108.367 32.8307 108.62 32.8307H119.694C119.873 32.8307 120.018 32.6858 120.018 32.5068V30.7395C120.018 30.5607 119.873 30.4156 119.694 30.4156H112.521L120.013 18.2851C120.146 18.0692 119.991 17.791 119.737 17.791Z" fill="#FF5036"/>
<path fill-rule="evenodd" clip-rule="evenodd" d="M74.0381 23.2662C74.2002 21.4021 76.2266 19.943 78.55 19.943C80.6883 19.943 82.7775 20.8766 83.1075 23.3059C83.1339 23.4993 82.9806 23.6716 82.7854 23.6716H80.7616C80.6194 23.6716 80.4891 23.5802 80.452 23.4431C80.241 22.6602 79.4496 22.3205 78.658 22.3205C77.9556 22.3205 77.1451 22.5909 76.875 23.0233C76.6588 23.3743 76.6317 23.7798 76.767 24.1577C76.9291 24.6444 77.6313 24.9414 78.3069 25.1304L80.2521 25.617C82.9811 26.2923 83.5485 28.0214 83.5485 29.2915C83.5485 31.7228 81.4139 33.1009 78.5229 33.1009C76.28 33.1009 73.9629 31.7475 73.7088 29.3229C73.6889 29.1328 73.8411 28.9673 74.0324 28.9673H75.9848C76.1367 28.9673 76.2638 29.0738 76.3009 29.2212C76.5359 30.1607 77.3977 30.7773 78.7391 30.7773C80.0089 30.7773 80.9817 30.2097 80.9817 29.2643C80.9817 28.4538 80.1441 27.9945 79.2254 27.7785L77.5232 27.373C74.8486 26.6434 73.876 25.2928 74.0381 23.2662Z" fill="#FF5036"/>
<path fill-rule="evenodd" clip-rule="evenodd" d="M95.076 25.4817C94.8058 23.5093 93.3738 22.3747 91.4828 22.3747C89.5374 22.3747 88.0243 23.5365 87.7542 25.4817H95.076ZM97.4729 27.508H87.7542C88.0243 29.4532 89.5914 30.6693 91.6178 30.6693C92.926 30.6693 94.2107 30.107 94.905 29.0916C94.9944 28.9608 95.1626 28.9117 95.3072 28.9768C95.8449 29.2194 96.44 29.473 96.9956 29.7162C97.1728 29.7938 97.2442 30.0093 97.1464 30.1765C95.9799 32.1724 93.7433 33.1008 91.4828 33.1008C87.8893 33.1008 84.9984 30.4803 84.9984 26.4816C84.9984 22.4829 87.8893 19.943 91.4828 19.943C95.076 19.943 97.8049 22.4829 97.8049 26.4816C97.8049 26.6816 97.8049 26.9551 97.7966 27.1948C97.7906 27.3695 97.6476 27.508 97.4729 27.508Z" fill="#FF5036"/>
<path fill-rule="evenodd" clip-rule="evenodd" d="M131.156 26.4778C131.156 23.9959 129.31 22.409 127.059 22.409C124.837 22.409 122.99 23.9959 122.99 26.4778C122.99 29.0173 124.837 30.662 127.059 30.662C129.31 30.662 131.156 29.0173 131.156 26.4778ZM120.494 26.4816C120.494 22.4829 123.493 19.9429 127.06 19.9429C130.653 19.9429 133.679 22.4829 133.679 26.4816C133.679 30.4803 130.653 33.1008 127.06 33.1008C123.493 33.1008 120.494 30.4803 120.494 26.4816Z" fill="#FF5036"/>
<path fill-rule="evenodd" clip-rule="evenodd" d="M145.635 26.4778C145.635 23.9959 143.788 22.409 141.538 22.409C139.315 22.409 137.469 23.9959 137.469 26.4778C137.469 29.0173 139.315 30.662 141.538 30.662C143.788 30.662 145.635 29.0173 145.635 26.4778ZM134.973 26.4816C134.973 22.4829 137.972 19.9429 141.538 19.9429C145.132 19.9429 148.158 22.4829 148.158 26.4816C148.158 30.4803 145.132 33.1008 141.538 33.1008C137.972 33.1008 134.973 30.4803 134.973 26.4816Z" fill="#FF5036"/>
<path fill-rule="evenodd" clip-rule="evenodd" d="M163.809 19.9434C162.135 19.9651 160.637 20.7144 159.615 21.8885C158.592 20.7144 157.095 19.9651 155.42 19.9434C152.267 19.9026 149.686 22.5541 149.686 25.7081V32.5068C149.686 32.6858 149.831 32.8307 150.01 32.8307H152.145C152.323 32.8307 152.468 32.6858 152.468 32.5068V25.6786C152.468 24.0658 153.788 22.6961 155.401 22.7262C156.965 22.7556 158.223 24.0325 158.223 25.6032V32.5068C158.223 32.6858 158.368 32.8307 158.547 32.8307H160.682C160.861 32.8307 161.006 32.6858 161.006 32.5068V25.6786C161.006 24.0658 162.326 22.6961 163.939 22.7262C165.502 22.7556 166.761 24.0325 166.761 25.6032V32.5068C166.761 32.6858 166.906 32.8307 167.085 32.8307H169.22C169.399 32.8307 169.544 32.6858 169.544 32.5068V25.7081C169.544 22.5541 166.963 19.9026 163.809 19.9434Z" fill="#FF5036"/>
<path fill-rule="evenodd" clip-rule="evenodd" d="M107.267 19.9497C105.683 19.8776 103.921 20.365 102.887 22.2808V20.5372C102.887 20.3584 102.742 20.2133 102.563 20.2133H100.428C100.249 20.2133 100.104 20.3584 100.104 20.5372V32.5067C100.104 32.6857 100.249 32.8306 100.428 32.8306H102.563C102.742 32.8306 102.887 32.6857 102.887 32.5067V27.8758C102.887 24.0036 105.002 22.4178 107.267 22.326C107.44 22.319 107.576 22.1767 107.576 22.0036V20.274C107.576 20.1009 107.44 19.9576 107.267 19.9497Z" fill="#FF5036"/>
<path fill-rule="evenodd" clip-rule="evenodd" d="M69.2582 17.791H71.418C71.5968 17.791 71.7419 17.9361 71.7419 18.1149V26.8775C71.7419 30.4804 69.2851 33.1008 65.4247 33.1008C61.5641 33.1008 59.1074 30.4804 59.1074 26.8775V18.1149C59.1074 17.9361 59.2525 17.791 59.4313 17.791H61.5911C61.7701 17.791 61.915 17.9361 61.915 18.1149V26.8681C61.915 28.7996 63.4517 30.4179 65.3829 30.4336C67.7265 30.4526 68.9343 28.8802 68.9343 26.5266V18.1149C68.9343 17.9361 69.0792 17.791 69.2582 17.791Z" fill="#FF5036"/>
</svg>
