<svg width="90" height="25" viewBox="0 0 90 25" fill="none" xmlns="http://www.w3.org/2000/svg">
<path d="M30.5542 10.2151C30.5542 8.76687 29.1459 7.22877 26.709 7.22877C23.9723 7.22877 20.9661 9.23629 20.5066 13.2413C20.0372 17.2863 22.5541 19.0841 25.091 19.0841C27.6278 19.0841 28.9562 18.0953 30.3145 16.777C29.1459 15.3088 27.6378 15.9879 27.3482 16.1378C27.0286 16.2976 26.6191 16.5173 25.7801 16.5173C24.8013 16.5173 23.8026 16.0778 23.8026 14.2501C30.0748 13.6309 30.5542 11.6633 30.5542 10.2151ZM27.448 10.4548C27.4081 10.9042 27.2283 11.6733 24.0522 12.1027C24.7214 9.72568 25.9998 9.54591 26.5891 9.54591C27.1384 9.54591 27.488 9.97538 27.448 10.4548ZM16.8212 10.8443C16.8212 10.8443 15.4729 15.0791 15.363 15.4286C15.323 15.0691 14.3343 7.46848 14.3343 7.46848C12.0371 7.46848 10.8086 9.10645 10.1594 10.8343C10.1594 10.8343 8.52146 15.0791 8.38163 15.4386C8.37164 15.109 8.13194 10.8843 8.13194 10.8843C7.99211 8.76687 6.05451 7.47846 4.48645 7.47846L6.3841 18.9942C8.79112 18.9842 10.0895 17.3562 10.7687 15.6284C10.7687 15.6284 12.2169 11.883 12.2768 11.7132C12.2868 11.873 13.3155 18.9942 13.3155 18.9942C15.7325 18.9942 17.0309 17.4661 17.7301 15.7982L21.1159 7.47846C18.7288 7.47846 17.4704 9.10645 16.8212 10.8443ZM39.4232 7.2088C37.9351 7.2088 36.7965 8.0178 35.8377 9.20633V9.19634L36.6966 2.2749C34.719 2.2749 33.111 3.99278 32.8014 6.54961L31.3033 18.9043C32.4419 18.9043 33.6504 18.5747 34.2996 17.7358C34.8788 18.4848 35.7478 19.0841 37.0362 19.0841C40.3721 19.0841 42.6592 15.2089 42.6592 11.5734C42.6392 8.2575 41.0312 7.2088 39.4232 7.2088ZM39.1136 13.1514C38.764 15.1789 37.6354 16.5572 36.5468 16.5572C35.4481 16.5572 34.9787 16.0678 34.9787 16.0678C35.1885 14.29 35.3183 13.2014 35.7178 12.2625C36.1173 11.3237 37.0661 9.82556 38.0549 9.82556C39.0237 9.82556 39.4632 11.114 39.1136 13.1514ZM50.9889 7.47846H48.6618L48.6718 7.35861C48.8316 5.84049 49.1911 5.04148 50.3797 4.91164C51.1887 4.83174 51.5482 4.41226 51.6381 3.95283C51.708 3.59327 51.9278 2.34482 51.9278 2.34482C47.2535 2.31485 45.7854 4.33236 45.4058 7.40855L45.3958 7.47846H45.3459C44.5868 7.47846 43.7479 8.3374 43.608 9.42605L43.5581 9.82556H45.1162L43.8078 20.6322L43.4083 22.5698C43.4582 22.5698 43.5182 22.5798 43.5681 22.5798C45.7554 22.4999 47.1537 20.772 47.4633 18.2651L48.482 9.82556H49.2111C49.9302 9.82556 50.7692 9.10645 50.919 7.90793L50.9889 7.47846ZM63.0939 7.27871C60.4073 7.27871 57.8704 9.25626 57.0914 12.3624C56.3123 15.4686 57.4909 19.144 61.446 19.144C65.3911 19.144 67.6683 15.3188 67.6683 12.1327C67.6683 8.96662 65.5209 7.27871 63.0939 7.27871ZM64.1826 13.0516C64.0428 14.4598 63.4235 16.5972 61.7256 16.5972C60.0177 16.5972 60.2574 14.1003 60.4272 12.9117C60.607 11.6433 61.3161 9.83555 62.8442 9.83555C64.2126 9.83555 64.3424 11.4635 64.1826 13.0516ZM80.9419 10.8443C80.9419 10.8443 79.5935 15.0791 79.4837 15.4286C79.4437 15.0691 78.4549 7.46848 78.4549 7.46848C76.1578 7.46848 74.9293 9.10645 74.2801 10.8343C74.2801 10.8343 72.6421 15.0791 72.5023 15.4386C72.4923 15.109 72.2526 10.8843 72.2526 10.8843C72.1128 8.76687 70.1752 7.47846 68.6071 7.47846L70.4948 18.9942C72.9018 18.9842 74.2002 17.3562 74.8794 15.6284C74.8794 15.6284 76.3276 11.883 76.3775 11.7132C76.3875 11.873 77.4162 18.9942 77.4162 18.9942C79.8332 18.9942 81.1316 17.4661 81.8308 15.7982L85.2166 7.47846C82.8395 7.47846 81.5811 9.10645 80.9419 10.8443ZM53.1862 2.34482L51.2286 18.1353L50.8291 20.0829C50.8791 20.0829 50.939 20.0929 50.9889 20.0929C53.0963 20.0629 54.5945 18.2152 54.8741 15.8881L56.0027 6.82927C56.3423 4.06269 54.6943 2.34482 53.1862 2.34482Z" fill="#4353FF"/>
</svg>
