<svg width="176" height="49" viewBox="0 0 176 49" fill="none" xmlns="http://www.w3.org/2000/svg">
<path d="M59.8346 19.7952C59.8346 16.9423 57.0604 13.9123 52.2596 13.9123C46.8686 13.9123 40.9463 17.867 40.0412 25.7569C39.1165 33.7254 44.0747 37.2669 49.0722 37.2669C54.0697 37.2669 56.6866 35.3191 59.3624 32.7219C57.0604 29.8297 54.0894 31.1676 53.5188 31.4627C52.8892 31.7775 52.0825 32.2104 50.4298 32.2104C48.5016 32.2104 46.5341 31.3447 46.5341 27.7441C58.8902 26.5242 59.8346 22.6482 59.8346 19.7952ZM53.7156 20.2674C53.6369 21.1528 53.2827 22.6678 47.026 23.5139C48.3442 18.8311 50.8627 18.477 52.0235 18.477C53.1056 18.477 53.7943 19.323 53.7156 20.2674ZM32.781 21.0348C32.781 21.0348 30.1248 29.3771 29.9084 30.0658C29.8297 29.3575 27.8818 14.3845 27.8818 14.3845C23.3565 14.3845 20.9364 17.6113 19.6575 21.0151C19.6575 21.0151 16.4308 29.3771 16.1553 30.0854C16.1356 29.4362 15.6634 21.1135 15.6634 21.1135C15.388 16.9423 11.571 14.4042 8.48193 14.4042L12.2203 37.0899C16.962 37.0702 19.5198 33.8631 20.8577 30.4593C20.8577 30.4593 23.7107 23.081 23.8287 22.7465C23.8484 23.0613 25.8749 37.0899 25.8749 37.0899C30.6364 37.0899 33.1942 34.0795 34.5715 30.7938L41.2414 14.4042C36.539 14.4042 34.0599 17.6113 32.781 21.0348ZM77.3063 13.8729C74.3747 13.8729 72.1317 15.4667 70.2429 17.808V17.7883L71.935 4.15332C68.0392 4.15332 64.8715 7.53748 64.2616 12.5744L61.3103 36.9128C63.5533 36.9128 65.934 36.2635 67.2129 34.6108C68.354 36.0864 70.0658 37.2669 72.6039 37.2669C79.1755 37.2669 83.6811 29.6329 83.6811 22.4711C83.6418 15.9389 80.4741 13.8729 77.3063 13.8729ZM76.6964 25.5798C76.0078 29.5739 73.7844 32.2891 71.6398 32.2891C69.4755 32.2891 68.5508 31.325 68.5508 31.325C68.964 27.8228 69.2198 25.6782 70.0068 23.8287C70.7938 21.9792 72.6629 19.0279 74.6108 19.0279C76.5193 19.0279 77.385 21.566 76.6964 25.5798ZM100.09 14.4042H95.506L95.5257 14.1681C95.8405 11.1774 96.5488 9.60339 98.8902 9.34761C100.484 9.19021 101.192 8.36385 101.369 7.45878C101.507 6.75047 101.94 4.29105 101.94 4.29105C92.7318 4.23202 89.8395 8.20644 89.0919 14.2665L89.0722 14.4042H88.9738C87.4785 14.4042 85.8258 16.0963 85.5503 18.2409L85.4519 19.0279H88.5213L85.9438 40.3166L85.1568 44.1336C85.2552 44.1336 85.3732 44.1533 85.4716 44.1533C89.7805 43.9959 92.5351 40.5921 93.145 35.6536L95.1519 19.0279H96.5882C98.0048 19.0279 99.6575 17.6113 99.9527 15.2502L100.09 14.4042ZM123.937 14.0107C118.644 14.0107 113.647 17.9064 112.112 24.0254C110.577 30.1445 112.899 37.385 120.69 37.385C128.462 37.385 132.948 29.8493 132.948 23.5729C132.948 17.3358 128.718 14.0107 123.937 14.0107ZM126.082 25.383C125.806 28.1573 124.586 32.3678 121.241 32.3678C117.877 32.3678 118.349 27.4489 118.684 25.1076C119.038 22.6088 120.435 19.0476 123.445 19.0476C126.141 19.0476 126.396 22.2546 126.082 25.383ZM159.097 21.0348C159.097 21.0348 156.441 29.3771 156.224 30.0658C156.145 29.3575 154.198 14.3845 154.198 14.3845C149.672 14.3845 147.252 17.6113 145.973 21.0151C145.973 21.0151 142.747 29.3771 142.471 30.0854C142.451 29.4362 141.979 21.1135 141.979 21.1135C141.704 16.9423 137.887 14.4042 134.798 14.4042L138.516 37.0899C143.258 37.0702 145.816 33.8631 147.154 30.4593C147.154 30.4593 150.007 23.081 150.105 22.7465C150.125 23.0613 152.151 37.0899 152.151 37.0899C156.913 37.0899 159.471 34.0795 160.848 30.7938L167.518 14.4042C162.835 14.4042 160.356 17.6113 159.097 21.0348ZM104.419 4.29105L100.563 35.3978L99.7756 39.2345C99.874 39.2345 99.992 39.2542 100.09 39.2542C104.242 39.1951 107.193 35.5552 107.744 30.9708L109.967 13.1253C110.636 7.67521 107.39 4.29105 104.419 4.29105Z" fill="#4353FF"/>
</svg>
